<svg width="305" height="689" viewBox="0 0 305 689" fill="none" xmlns="http://www.w3.org/2000/svg">
<path d="M43.2155 -45.2307L43.2153 595.1L-134 601.525L43.2155 -45.2307Z" fill="#F3F3F3"/>
<path d="M305 675.054C305 675.168 304.908 675.259 304.794 675.259H178.603C178.489 675.259 178.397 675.168 178.397 675.054C178.397 674.94 178.489 674.848 178.603 674.848H304.794C304.908 674.848 305 674.94 305 675.054Z" fill="#3F3D56"/>
<path d="M234.864 664.714V671.503L229.718 671.669L229.933 664.714H234.864Z" fill="#FFB6B6"/>
<path d="M235.882 668.491C235.951 668.491 236.021 668.499 236.086 668.518C237.015 668.782 242.39 673.571 244.015 675.031C244.215 675.212 244.323 675.47 244.307 675.739C244.293 676.006 244.158 676.25 243.94 676.407C242.708 677.293 240.182 678.694 237.119 678.128C235.711 677.867 234.289 677.703 233.032 677.56C230.345 677.251 228.224 677.006 228.224 676.058C228.224 674.448 228.667 670.206 229.224 670.029C229.274 670.013 229.333 670.053 229.4 670.146C230.252 671.335 233.179 670.704 233.304 670.676L233.337 670.669L233.356 670.641C233.371 670.619 234.804 668.494 235.882 668.494V668.491Z" fill="#2F2E41"/>
<path d="M244.49 664.714V671.503L239.346 671.669L239.561 664.714H244.49Z" fill="#FFB6B6"/>
<path d="M246.565 616.116L249.304 618.185L249.803 641.532L245.155 667.032L239.097 667.281L238.931 642.939L231.129 620.752L232.707 615.536L246.565 616.116Z" fill="#2F2E41"/>
<path d="M233.784 620.089L231.128 620.752L229.22 667.032L236.108 666.452L240.673 633.749L233.784 620.089Z" fill="#2F2E41"/>
<path d="M248.164 678.423C250.526 678.423 252.443 677.382 253.467 676.68C253.777 676.467 253.969 676.131 253.994 675.756C254.018 675.378 253.871 675.016 253.589 674.762C251.045 672.48 246.647 668.613 245.759 668.359C244.608 668.03 243.063 670.225 242.864 670.517C242.542 670.583 239.907 671.085 239.165 670.046C239.023 669.847 238.889 669.839 238.803 669.866C238.009 670.12 237.687 675.223 237.687 676.055C237.687 677.151 239.765 677.391 242.643 677.722C243.895 677.867 245.314 678.03 246.717 678.289C247.216 678.38 247.699 678.422 248.166 678.422L248.164 678.423Z" fill="#2F2E41"/>
<path d="M267.574 585.909C268.453 583.972 268.123 581.942 266.836 581.378C265.548 580.813 263.792 581.927 262.913 583.865C262.551 584.635 262.385 585.481 262.432 586.332L258.815 594.59L262.896 596.223L266.028 587.91C266.702 587.374 267.234 586.689 267.574 585.911C267.574 585.911 267.574 585.909 267.574 585.909Z" fill="#FFB6B6"/>
<path d="M242.577 589.415C240.372 591.49 240.509 595.029 242.869 596.926L254.428 606.216C255.689 607.229 257.561 606.872 258.357 605.463C261.394 600.558 261.967 600.288 263.733 595.262L258.755 593.525L255.949 597.031L249.82 589.819C247.968 587.639 244.662 587.456 242.578 589.415L242.577 589.415Z" fill="white"/>
<path d="M240.874 585.876L238.984 589.675L246.129 593.118L246.042 587.026L240.874 585.876Z" fill="#FFB6B6"/>
<path d="M246.105 588.75C242.554 588.75 239.675 585.878 239.675 582.336C239.675 578.793 242.554 575.921 246.105 575.921C249.656 575.921 252.535 578.793 252.535 582.336C252.535 585.878 249.656 588.75 246.105 588.75Z" fill="#FFB6B6"/>
<path d="M246.148 591.636L239.555 587.751C234.721 591.134 230.694 591.925 230.566 597.815L231.457 611.864L231.405 617.914C231.383 620.455 233.442 622.525 235.987 622.525H245.4C247.892 622.525 249.747 620.233 249.223 617.802L247.446 609.57L249.344 593.527L246.148 591.633V591.636Z" fill="white"/>
<path d="M277.421 568.42C277.294 568.108 276.939 567.959 276.628 568.085L270.258 570.66C269.945 570.786 269.795 571.141 269.921 571.452L269.952 571.528L254.612 578.796C254.496 578.636 254.282 578.568 254.087 578.647L252.417 579.322L251.925 578.104C251.815 577.832 251.505 577.702 251.234 577.812L250.894 577.949L250.459 576.874C250.39 576.702 250.194 576.62 250.022 576.689L249.071 577.074C248.9 577.143 248.816 577.339 248.885 577.51L249.32 578.585L249.007 578.712C249.012 578.66 249.006 578.608 248.986 578.558C248.894 578.329 248.549 578.251 248.217 578.385C247.885 578.52 247.69 578.814 247.783 579.045C247.807 579.104 247.85 579.154 247.902 579.192C247.739 579.336 247.672 579.574 247.759 579.788L250.312 586.103C250.422 586.375 250.732 586.505 251.003 586.395L254.184 585.11C254.457 584.999 254.587 584.69 254.478 584.419L254.135 583.571L255.805 582.896C256.02 582.809 256.128 582.573 256.063 582.356L272.957 578.888C273.121 579.088 273.402 579.168 273.655 579.065L280.026 576.49C280.339 576.364 280.488 576.009 280.363 575.699C279.397 573.091 278.241 570.712 277.421 568.42Z" fill="#3F3D56"/>
<path d="M256.373 587.853C257.229 585.905 256.875 583.881 255.58 583.33C254.286 582.781 252.544 583.913 251.687 585.862C251.334 586.636 251.178 587.483 251.235 588.334L247.716 596.634L251.815 598.22L254.85 589.871C255.52 589.329 256.042 588.636 256.373 587.853Z" fill="#FFB6B6"/>
<path d="M231.418 591.65C229.238 593.751 229.418 597.288 231.799 599.158L243.465 608.312C244.738 609.311 246.605 608.931 247.385 607.514C250.365 602.574 250.606 603.245 252.313 598.198L247.719 595.308L244.878 599.111L238.666 591.971C236.789 589.814 233.481 589.669 231.42 591.652H231.418C231.418 591.652 231.418 591.65 231.418 591.65Z" fill="white"/>
<path d="M240.108 587.108L241.509 587.523C241.509 587.523 240.63 583.909 241.033 583.596C241.435 583.284 242.329 583.877 242.329 583.877L243.232 585.035L244.505 583.903C244.505 583.903 245.906 582.384 246.443 581.966C246.98 581.549 246.28 579.822 246.28 579.822C246.28 579.822 253.926 578.296 251.379 574.476C251.379 574.476 249.934 571.518 249.338 572.411C248.742 573.304 248.205 571.787 248.205 571.787L246.238 572.027C246.238 572.027 242.557 569.518 238.591 574.105C234.625 578.691 240.108 587.105 240.108 587.105L240.11 587.108L240.108 587.108Z" fill="#2F2E41"/>
<path d="M42.6806 -45.2307L42.6804 595.1L-115.261 601.525L42.6806 -45.2307Z" fill="#E2E2E2"/>
<path d="M61.9531 -181.222C124.285 116.543 172.135 279.893 285.212 563.511L61.9532 581.714L61.9531 -181.222Z" fill="#F3F3F3"/>
<path d="M61.418 83.2632C90.459 276.239 113.188 383.604 164.749 573.684L61.4181 581.715L61.418 83.2632Z" fill="#E2E2E2"/>
<rect x="46.9629" y="-193" width="11.7787" height="794.524" fill="#F9F9F9"/>
<rect x="51.2461" y="-193" width="7.49551" height="794.524" fill="#CCCCCC"/>
<path d="M-122.221 636.86L278.254 645.426L266.437 678.023C264.21 684.166 258.376 688.257 251.842 688.257H-82.0662L-122.221 636.86Z" fill="#E2E2E2"/>
<path d="M-113.118 636.325L-31.7383 637.931C-31.7383 637.931 45.3584 652.922 72.6635 663.63C97.2916 675.944 177.065 675.944 177.065 675.944C208.781 673.941 243.99 663.095 268.082 644.891C276.649 644.891 278.255 645.427 278.255 645.427L266.438 678.024C264.211 684.167 258.377 688.258 251.843 688.258H-78.3176L-113.118 636.325Z" fill="#B3B3B3"/>
<path d="M-129.182 623.476L278.253 636.861V645.427L-122.222 636.861L-129.182 623.476Z" fill="#646464"/>
<path d="M-129.182 620.264L205.975 634.184L-129.182 623.476V620.264Z" fill="#F3F3F3"/>
<path d="M-26.047 615.755L-37.6279 623.476L10.5575 626.153L14.0206 620.463C16.5247 616.349 20.9924 613.838 25.8085 613.838H72.6632L45.3581 602.06L37.8626 608.485L-9.11435 610.274C-15.156 610.504 -21.0163 612.401 -26.047 615.755Z" fill="#F3F3F3"/>
<path d="M45.8935 601.525V607.95L4.13276 614.375L-0.150391 627.759L228.463 635.255L225.658 626.038C225.092 624.18 223.421 622.878 221.481 622.783L158.862 619.729V610.15C158.862 605.387 155 601.525 150.237 601.525H93.5435L92.4727 598.313H51.2474V601.525H45.8935Z" fill="#CCCCCC"/>
<path d="M91.9385 598.313H145.478C150.209 598.313 154.044 602.148 154.044 606.879H91.9385V598.313Z" fill="#D9D9D9"/>
<path d="M83.1034 617.29C83.2637 616.827 83.7 616.516 84.1902 616.516H108.991C109.626 616.516 110.141 617.031 110.141 617.666V629.286C110.141 629.921 109.626 630.436 108.991 630.436H80.1678C79.3772 630.436 78.8224 629.657 79.081 628.91L83.1034 617.29Z" fill="#646464"/>
<path d="M120.358 617.71C120.333 617.058 120.855 616.516 121.508 616.516H141.474C141.95 616.516 142.376 616.809 142.547 617.253L147.016 628.873C147.306 629.627 146.75 630.436 145.943 630.436H121.955C121.337 630.436 120.829 629.948 120.805 629.33L120.358 617.71Z" fill="#646464"/>
</svg>
