<svg width="193" height="72" viewBox="0 0 193 72" fill="none" xmlns="http://www.w3.org/2000/svg">
<path fill-rule="evenodd" clip-rule="evenodd" d="M113.474 71.7893H0.497238C0.17038 69.9086 0 67.9741 0 65.9998C0 47.4547 15.0338 32.421 33.5789 32.421C36.5198 32.421 39.3724 32.799 42.0907 33.5092C48.8356 14.0061 67.361 0 89.1576 0C111.789 0 130.893 15.099 136.947 35.7727C137.222 35.6513 137.498 35.533 137.776 35.4179C142.553 33.4394 147.672 32.4211 152.842 32.4211C158.012 32.4211 163.131 33.4394 167.908 35.4178C172.684 37.3963 177.024 40.2961 180.68 43.9518C184.335 47.6075 187.235 51.9474 189.214 56.7238C191.192 61.5002 192.21 66.6195 192.21 71.7894H152.842H113.474C113.474 71.7894 113.474 71.7894 113.474 71.7893Z" fill="#FFB2BC"/>
</svg>
