<svg width="265" height="99" viewBox="0 0 265 99" fill="none" xmlns="http://www.w3.org/2000/svg">
<path fill-rule="evenodd" clip-rule="evenodd" d="M155.884 98.6204H0.68305C0.234049 96.0368 0 93.3793 0 90.6673C0 65.191 20.6526 44.5384 46.1289 44.5384C50.1689 44.5384 54.0877 45.0577 57.822 46.0334C67.0878 19.2409 92.5369 0 122.48 0C153.569 0 179.814 20.7421 188.13 49.1425C188.508 48.9758 188.888 48.8133 189.27 48.6551C195.831 45.9373 202.864 44.5384 209.966 44.5384C217.068 44.5384 224.101 45.9373 230.663 48.6551C237.224 51.373 243.186 55.3567 248.208 60.3787C253.23 65.4007 257.214 71.3626 259.932 77.9242C262.649 84.4857 264.048 91.5184 264.048 98.6205H209.966L155.884 98.6205C155.884 98.6205 155.884 98.6204 155.884 98.6204Z" fill="#FF7F8F"/>
</svg>
