<svg width="839" height="839" viewBox="0 0 839 839" fill="none" xmlns="http://www.w3.org/2000/svg">
<path fill-rule="evenodd" clip-rule="evenodd" d="M175.11 331.101C153.545 338.286 135.83 344.248 135.742 344.35C135.655 344.451 135.227 367.122 134.792 394.728L134 444.922L135.477 447.645C136.29 449.143 137.458 451.288 138.073 452.412C138.688 453.537 140.645 456.688 142.423 459.415C155.826 479.989 177.965 500.355 201.819 514.057C208.002 517.608 214.787 521 215.709 521C217.134 521 235.038 510.58 243.41 504.876C258.993 494.261 273.789 481.323 282.111 471.036C288.891 462.654 294.72 452.87 297.11 445.86L298.182 442.715V343.469L296.705 342.999C295.892 342.741 289.194 340.67 281.819 338.398C268.149 334.188 246.771 327.575 226.866 321.402C220.768 319.51 215.449 317.979 215.048 318C214.647 318.021 196.675 323.916 175.11 331.101ZM179.999 338.78C160.874 345.193 145.001 350.586 144.727 350.765C144.224 351.093 143.943 364.659 143.399 414.939C143.266 427.18 143.052 438.361 142.923 439.786C142.66 442.687 142.887 443.267 147.079 450.368C155.86 465.243 170.112 480.743 186.819 493.584C194.196 499.254 205.332 506.379 212.297 509.883L215.444 511.467L219.654 509.136C234.356 500.996 249.354 490.445 261.647 479.597C274.236 468.486 285.019 454.063 288.675 443.446C289.511 441.017 289.546 439.078 289.546 395.404V349.894L280.342 347.053C275.279 345.49 270.217 343.949 269.092 343.627C267.967 343.306 262.444 341.609 256.819 339.855C247.534 336.961 230.659 331.763 219.546 328.374C217.171 327.65 215.126 327.072 215.001 327.09C214.876 327.107 199.125 332.368 179.999 338.78ZM210.91 369.547C205.999 370.61 203.145 371.604 199.073 373.672C191.722 377.404 186.172 382.995 182.521 390.346C181.385 392.634 180.456 394.811 180.457 395.184C180.458 395.562 181.816 396.557 183.525 397.433C194.403 403.008 210.335 413.494 216.238 418.963C220.146 422.583 219.473 422.709 224.934 417.336C227.596 414.718 230.285 412.116 230.91 411.554C237.019 406.061 246.853 399.237 252.625 396.484C256.946 394.423 256.856 394.791 254.309 389.631C250.036 380.97 242.218 374.423 232.273 371.178C225.212 368.873 216.943 368.242 210.91 369.547ZM320.91 429.701L342.16 429.699C356.301 429.697 364.018 429.528 365.228 429.193C367.786 428.485 369.346 427.251 370.794 424.789L372.046 422.661L372.189 411.334C372.312 401.634 372.224 399.724 371.576 398.031C370.56 395.369 368.829 393.408 366.61 392.401C364.911 391.629 363.136 391.566 342.841 391.557L320.91 391.547V429.701ZM377.273 429.701H423.637V423.796H384.546V413.349H421.364V407.444H384.546V397.451H423.637V391.547H377.273V429.701ZM433.27 392.12C431.304 392.749 428.316 396.177 427.678 398.537C427.4 399.564 427.268 401.759 427.385 403.414C427.668 407.405 429.066 409.923 432.009 411.741L434.245 413.122L450.469 413.257C469.681 413.416 468.637 413.123 468.637 418.363C468.637 421.972 467.933 423.093 465.367 423.571C464.54 423.725 457.698 423.788 450.161 423.71C437.436 423.579 436.39 423.507 435.502 422.704C434.846 422.11 434.546 421.29 434.546 420.092V418.346H427.273L427.278 420.049C427.284 422.4 429.14 426.169 430.974 427.553C433.755 429.651 435.002 429.77 452.5 429.617C467.095 429.49 469.022 429.388 470.328 428.674C474.005 426.666 475.431 423.751 475.445 418.214C475.453 415.123 475.253 413.825 474.559 412.467C473.383 410.162 470.824 408.099 468.38 407.484C467.162 407.178 460.728 406.99 451.44 406.99C434.449 406.99 434.655 407.032 434.526 403.583C434.374 399.528 434.496 399.039 435.866 398.231C437.036 397.54 438.778 397.451 451.22 397.451C466.336 397.451 467.031 397.554 467.356 399.84C467.49 400.787 467.747 400.864 471.023 400.934C474.359 401.006 474.545 400.958 474.536 400.026C474.508 397.232 471.196 393.051 468.228 392.062C466.192 391.383 435.414 391.434 433.27 392.12ZM480.228 429.474L487.273 429.739V391.547H479.99L480.228 429.474ZM498.65 392.042C496.478 392.928 494.428 394.876 493.491 396.948C492.655 398.796 492.523 400.135 492.359 408.375C492.079 422.473 492.919 425.811 497.393 428.372L499.319 429.474H537.112L539.007 428.221C540.049 427.532 541.466 426.117 542.155 425.077C543.367 423.25 543.414 422.948 543.555 416.224L543.701 409.261H518.182V415.166H536.921L536.738 418.401C536.577 421.255 536.408 421.761 535.298 422.716L534.04 423.796H518.679C502.849 423.796 500.869 423.602 499.991 421.962C499.736 421.486 499.546 416.472 499.546 410.232V399.334L500.763 398.377C501.959 397.437 502.29 397.422 518.475 397.549C537.37 397.698 536.367 397.467 536.722 401.743L536.931 404.265H543.637V401.628C543.637 398.147 542.028 394.856 539.457 393.074L537.579 391.774L518.676 391.679C506.802 391.62 499.356 391.755 498.65 392.042ZM549.091 429.701H555.909V415.847C555.909 408.228 556.068 401.994 556.263 401.994C556.632 401.994 559.464 404.22 570.498 413.183C574.147 416.148 580.247 421.086 584.053 424.157L590.972 429.741L597.046 429.474L597.283 391.547H590V405.4C590 413.02 589.884 419.254 589.742 419.254C589.503 419.254 582.162 413.366 562.985 397.796L555.287 391.547H549.091V429.701ZM328.182 423.837L345.635 423.703C362.056 423.577 363.145 423.518 364.044 422.704C364.967 421.869 365 421.45 364.994 410.667C364.99 404.523 364.836 399.271 364.653 398.996C363.701 397.571 362.196 397.451 345.258 397.451H328.182V423.837ZM337.218 453.662C333.148 459.595 327.877 467.311 325.504 470.808C323.131 474.306 320.615 477.965 319.913 478.939C319.212 479.913 318.637 480.892 318.637 481.114C318.637 481.335 320.509 481.458 322.797 481.386L326.957 481.256L333 472.625L361.683 472.385L367.9 481.483H376.469L375.669 480.234C375.229 479.546 371.79 474.488 368.026 468.992C364.263 463.495 359.045 455.83 356.431 451.958C350.085 442.556 350.406 442.874 347.23 442.874H344.617L337.218 453.662ZM383.995 443.416C383.067 443.662 381.395 444.667 380.279 445.649C376.987 448.544 376.735 449.859 376.903 463.215L377.046 474.516L378.414 476.726C379.384 478.293 380.436 479.272 382.037 480.095L384.292 481.256L401.521 481.385C416.059 481.494 419.131 481.404 421.19 480.805C425.45 479.568 427.72 476.464 428.084 471.38L428.305 468.31H425.326C421.163 468.31 420.91 468.463 420.91 470.983C420.91 472.168 420.597 473.55 420.202 474.114L419.495 475.124H402.789C389.091 475.124 385.925 475.008 385.201 474.48C384.385 473.884 384.302 473.061 384.091 463.465C383.851 452.461 384.054 450.437 385.475 449.676C386.862 448.934 419.323 449.282 420.088 450.046C420.41 450.369 420.779 451.8 420.905 453.226L421.137 455.819L428.182 456.084V453.875C428.182 450.76 426.985 447.622 425.101 445.793C422.255 443.031 420.96 442.868 402.304 442.921C392.981 442.947 384.941 443.164 383.995 443.416ZM454.075 444.123C452.757 445.778 430.105 478.908 428.919 480.915C428.66 481.353 429.559 481.483 432.842 481.483H437.101L443.318 472.385L472.001 472.625L478.044 481.256L486.873 481.516L482.417 475.027C479.966 471.457 474.755 463.836 470.836 458.09C466.917 452.344 462.965 446.57 462.055 445.258L460.4 442.874H457.735C455.371 442.874 454.957 443.015 454.075 444.123ZM489.849 443.177C489.682 443.343 489.546 452.03 489.546 462.481V481.483H510.599C534.942 481.483 535.104 481.462 538.126 478.032C540.744 475.06 541.061 473.008 540.817 460.597C540.596 449.365 540.345 448.25 537.428 445.53C534.684 442.97 533.718 442.874 510.969 442.874C499.52 442.874 490.015 443.01 489.849 443.177ZM546.213 443.177C546.046 443.343 545.909 452.03 545.909 462.481V481.483H592.273V475.124H552.697L552.955 465.358L590 465.121V459.236L552.955 458.999L552.697 449.233H592.273V442.874H569.394C556.811 442.874 546.379 443.01 546.213 443.177ZM597.122 443.177C596.955 443.343 596.818 452.03 596.818 462.481V481.483H603.637V468.992C603.637 462.121 603.805 456.5 604.01 456.5C604.215 456.5 606.571 459.72 609.244 463.654C611.917 467.589 615.707 473.159 617.664 476.032L621.222 481.256L627.266 481.524L628.52 479.562C629.209 478.482 633.046 472.826 637.046 466.993L644.318 456.387L644.56 481.483H651.828L651.591 443.101H645.261L642.062 447.714C640.303 450.252 635.898 456.662 632.273 461.961C628.648 467.259 625.361 472.007 624.967 472.513C624.283 473.394 623.911 472.937 616.142 461.674C611.681 455.206 606.925 448.33 605.575 446.394L603.119 442.874H600.272C598.706 442.874 597.288 443.01 597.122 443.177ZM654.546 443.055C654.546 443.239 669.594 458.127 673.977 462.28L676.364 464.541V481.521L683.409 481.256L683.656 464.323L694.328 453.998C700.198 448.318 705 443.492 705 443.273C705 443.053 702.917 442.874 700.37 442.874H695.741L680.016 458.494L676.031 454.668C673.839 452.563 670.205 449.05 667.955 446.862L663.864 442.884L659.205 442.879C656.642 442.876 654.546 442.955 654.546 443.055ZM200.455 448.107C200.455 448.237 202.449 450.946 204.887 454.126C207.325 457.306 211.556 462.826 214.29 466.393C218.171 471.457 219.374 472.751 219.778 472.298C220.063 471.978 222.135 469.468 224.381 466.72C226.628 463.972 230.959 458.72 234.006 455.048C237.053 451.375 239.546 448.259 239.546 448.121C239.546 447.983 230.751 447.87 220.001 447.87C209.251 447.87 200.455 447.977 200.455 448.107ZM496.364 475.124H514.074C531.706 475.124 531.787 475.119 532.71 474.129C533.59 473.185 533.636 472.588 533.622 462.206C533.61 453.177 533.488 451.119 532.921 450.368C532.258 449.491 531.624 449.455 514.299 449.331L496.364 449.203V475.124ZM344.324 455.933C342.877 458.119 340.711 461.266 339.512 462.926C338.313 464.587 337.455 466.069 337.605 466.219C337.953 466.567 357.273 466.583 357.273 466.235C357.273 465.731 347.665 451.958 347.313 451.958C347.116 451.958 345.771 453.747 344.324 455.933ZM452.522 458.957C449.885 462.806 447.728 466.077 447.728 466.225C447.728 466.59 467.046 466.568 467.413 466.203C467.573 466.043 467.128 465.174 466.424 464.272C465.72 463.371 463.856 460.691 462.28 458.317C458.611 452.79 458.025 451.99 457.635 451.972C457.459 451.965 455.158 455.108 452.522 458.957Z" fill="#39393B"/>
<path fill-rule="evenodd" clip-rule="evenodd" d="M210.91 369.547C205.999 370.61 203.145 371.604 199.073 373.672C191.722 377.404 186.172 382.995 182.521 390.346C181.385 392.634 180.456 394.811 180.457 395.184C180.458 395.562 181.816 396.557 183.525 397.433C194.403 403.008 210.335 413.494 216.238 418.963C220.146 422.583 219.473 422.709 224.934 417.336C227.596 414.718 230.285 412.116 230.91 411.554C237.019 406.061 246.853 399.237 252.625 396.484C256.946 394.423 256.856 394.791 254.309 389.631C250.036 380.97 242.218 374.423 232.273 371.178C225.212 368.873 216.943 368.242 210.91 369.547ZM200.455 448.107C200.455 448.237 202.449 450.946 204.887 454.126C207.325 457.306 211.556 462.826 214.29 466.393C218.171 471.457 219.374 472.751 219.778 472.298C220.063 471.978 222.135 469.468 224.381 466.72C226.628 463.972 230.959 458.72 234.006 455.048C237.053 451.375 239.546 448.259 239.546 448.121C239.546 447.983 230.751 447.87 220.001 447.87C209.251 447.87 200.455 447.977 200.455 448.107Z" fill="#A01C94"/>
<path fill-rule="evenodd" clip-rule="evenodd" d="M327.393 339.289C325.282 339.804 322.88 341.789 321.701 343.993C320.739 345.792 320.674 346.516 320.539 357.015C320.378 369.463 320.598 370.957 323.014 373.777C325.802 377.032 326.026 377.062 346.894 376.915L365.378 376.785L367.348 375.402C368.432 374.641 369.83 373.108 370.455 371.995C371.588 369.978 371.592 369.931 371.592 357.934C371.592 344.829 371.487 344.228 368.775 341.695C365.938 339.046 366.298 339.09 346.819 339.007C336.944 338.965 328.202 339.092 327.393 339.289ZM372.273 338.99C372.273 339.064 375.329 343.611 379.064 349.097C386.218 359.605 387.106 360.902 391.266 366.91C392.695 368.974 394.854 372.1 396.063 373.857L398.261 377.051L404.245 376.785L407.191 372.469C408.811 370.096 414.467 361.818 419.76 354.073C425.053 346.329 429.535 339.737 429.719 339.425C429.977 338.987 429.085 338.858 425.823 338.862L421.591 338.867L417.646 344.653C406.725 360.671 403.23 365.746 402.2 367.081L401.073 368.54L399.514 366.421C398.656 365.256 394.069 358.584 389.319 351.595L380.682 338.887L376.478 338.872C374.166 338.864 372.273 338.917 372.273 338.99ZM432.935 339.425C432.815 339.738 432.771 348.272 432.836 358.389L432.955 376.785L440 377.05V338.857H436.577C434.256 338.857 433.084 339.04 432.935 339.425ZM329.257 345.284C327.495 346.153 327.273 347.537 327.273 357.661C327.273 368.224 327.546 369.825 329.483 370.627C330.349 370.985 335.629 371.101 346.935 371.01C362.532 370.885 363.17 370.845 363.831 369.971C364.399 369.219 364.52 367.136 364.532 357.891C364.546 347.103 364.513 346.69 363.59 345.854C362.692 345.041 361.655 344.984 346.431 344.897C335.814 344.837 329.893 344.971 329.257 345.284Z" fill="#A41993"/>
<path fill-rule="evenodd" clip-rule="evenodd" d="M158.835 396.403C158.977 396.772 162.621 401.806 166.933 407.591C171.246 413.375 177.895 422.301 181.71 427.425C185.524 432.55 189.163 437.406 189.797 438.219L190.949 439.695L202.407 439.694C208.709 439.694 221.364 439.559 230.53 439.394L247.196 439.095L251.439 433.894C256.658 427.501 271.754 409.066 277.563 401.994C282.575 395.893 282.577 395.897 275.165 397.683C251.627 403.353 234.12 413.979 223.348 429.134C221.705 431.445 220.292 433.336 220.207 433.336C220.122 433.336 218.852 432.161 217.384 430.724C198.892 412.625 178.13 399.829 161.657 396.378C158.952 395.812 158.61 395.815 158.835 396.403Z" fill="#CF9A68"/>
</svg>
