<svg width="48" height="48" viewBox="0 0 48 48" fill="none" xmlns="http://www.w3.org/2000/svg">
<g clip-path="url(#clip0_1_273)">
<path d="M47 24C47 36.7025 36.7025 47 24 47C11.2975 47 1 36.7025 1 24C1 11.2975 11.2975 1 24 1C36.7025 1 47 11.2975 47 24Z" fill="white" stroke="white" stroke-width="2"/>
<path d="M24.5268 21.797C24.5268 26.4504 20.7614 30.2226 16.1164 30.2226C11.4715 30.2226 7.70599 26.4504 7.70599 21.797C7.70599 17.1436 11.4715 13.3713 16.1164 13.3713C20.7614 13.3713 24.5268 17.1436 24.5268 21.797ZM10.7015 21.797C10.7015 24.793 13.1258 27.2217 16.1164 27.2217C19.107 27.2217 21.5313 24.793 21.5313 21.797C21.5313 18.801 19.107 16.3723 16.1164 16.3723C13.1258 16.3723 10.7015 18.801 10.7015 21.797Z" fill="#1B1F22"/>
<path d="M36.1803 32.061C34.9752 33.737 33.1981 34.9122 31.1863 35.3638C29.1746 35.8154 27.0681 35.5118 25.2668 34.5108C23.4655 33.5098 22.0946 31.881 21.4145 29.9334C20.7343 27.9859 20.7922 25.8552 21.577 23.9458L23.9844 24.9357C23.4424 26.2541 23.4025 27.7254 23.8722 29.0702C24.3418 30.415 25.2884 31.5397 26.5322 32.231C27.7761 32.9222 29.2306 33.1318 30.6198 32.8199C32.0089 32.5081 33.236 31.6966 34.0682 30.5394L36.1803 32.061Z" fill="#1B1F22"/>
<path d="M8.4907 24.9863C7.58848 25.407 7.19817 26.4795 7.61893 27.3816C7.78568 27.7392 8.20893 27.8964 8.56866 27.7342L11.9834 26.1947L10.8966 23.8643L8.4907 24.9863Z" fill="#1B1F22"/>
<path d="M30.816 19.1694L28.9928 17.408L21.3405 26.6852L23.1637 28.4466L30.816 19.1694Z" fill="#1B1F22"/>
<path d="M33.5028 21.2363L35.3476 23.0186L33.4076 25.3705C33.0952 25.7492 32.5558 25.7797 32.2028 25.4386L31.6365 24.8916C31.2834 24.5505 31.2504 23.967 31.5628 23.5883L33.5028 21.2363Z" fill="#1B1F22"/>
<path d="M39.2635 27.5398C40.013 26.6697 40.4329 25.5249 40.434 24.3483C40.435 23.1717 40.0172 22.0561 39.2692 21.2382C38.5212 20.4203 37.5019 19.9646 36.4276 19.9678C35.3535 19.971 34.3089 20.4329 33.5159 21.2553L35.1837 23.1921C35.5023 22.8618 35.9218 22.6763 36.3532 22.675C36.7847 22.6737 37.1941 22.8568 37.4946 23.1853C37.795 23.5138 37.9628 23.9619 37.9624 24.4345C37.962 24.9071 37.7934 25.3669 37.4923 25.7164L39.2635 27.5398Z" fill="#1B1F22"/>
<path d="M35.2307 23.1045C35.9061 22.165 36.2291 20.9861 36.1311 19.818C36.0331 18.6499 35.5219 17.5845 34.706 16.8481C33.8901 16.1117 32.8337 15.7623 31.761 15.8739C30.6885 15.9856 29.6841 16.5495 28.9612 17.4461L30.79 19.2004C31.0804 18.8403 31.4838 18.6138 31.9146 18.5689C32.3454 18.5241 32.7698 18.6645 33.0975 18.9603C33.4252 19.2561 33.6305 19.684 33.6699 20.1531C33.7092 20.6223 33.5795 21.0958 33.3082 21.4732L35.2307 23.1045Z" fill="#1B1F22"/>
<path d="M37.653 25.4719L39.3989 27.4138L36.0312 32.2637L34.0574 30.65L37.653 25.4719Z" fill="#1B1F22"/>
<path d="M26.439 18.6306L24.262 17.3315L21.5916 22.7273L23.7686 24.0263L26.439 18.6306Z" fill="#1B1F22"/>
<path d="M31.4918 17.3879C31.1187 16.6383 30.5627 16.0171 29.8874 15.5952C29.2121 15.1733 28.4448 14.9677 27.673 15.002C26.9013 15.0362 26.1562 15.3089 25.5231 15.7889C24.8899 16.2689 24.3942 16.9369 24.0925 17.7165L26.3615 18.8036C26.4827 18.4905 26.6818 18.2221 26.9361 18.0293C27.1904 17.8365 27.4897 17.727 27.7997 17.7133C28.1096 17.6995 28.4178 17.7821 28.6891 17.9515C28.9603 18.121 29.1837 18.3705 29.3335 18.6716L31.4918 17.3879Z" fill="#1B1F22"/>
<path d="M16.9969 21.1973C16.9969 22.3951 16.03 23.3661 14.8372 23.3661C13.6444 23.3661 12.6774 22.3951 12.6774 21.1973C12.6774 19.9995 13.6444 19.0286 14.8372 19.0286C16.03 19.0286 16.9969 19.9995 16.9969 21.1973Z" fill="#1B1F22"/>
<path d="M15.2489 20.7429C15.2489 21.2163 14.8651 21.6001 14.3917 21.6001C13.9183 21.6001 13.5345 21.2163 13.5345 20.7429C13.5345 20.2695 13.9183 19.8857 14.3917 19.8857C14.8651 19.8857 15.2489 20.2695 15.2489 20.7429Z" fill="white"/>
<path d="M21.6063 16.6285C22.8336 16.6285 23.8286 15.6336 23.8286 14.4063V14.3243C23.8286 13.8366 23.4356 13.44 22.948 13.4355L16.1143 13.3713L17.497 16.6285H21.6063Z" fill="#1B1F22"/>
</g>
<defs>
<clipPath id="clip0_1_273">
<rect width="48" height="48" fill="white"/>
</clipPath>
</defs>
</svg>
