<svg width="1505" height="355" viewBox="0 0 1505 355" fill="none" xmlns="http://www.w3.org/2000/svg">
<path fill-rule="evenodd" clip-rule="evenodd" d="M1787.67 0L1736.56 18.8605C1683.9 37.7211 1581.67 75.4421 1477.89 72.7477C1374.12 70.0534 1271.89 26.9436 1168.12 18.8605C1064.34 10.7774 962.113 37.7211 858.337 40.4154C754.561 43.1098 652.334 21.5549 548.558 21.5549C444.782 21.5549 342.555 43.1098 238.779 43.1098C135.003 43.1098 32.776 21.5549 -19.8865 10.7774L-71 0V129.329H-19.8865C32.776 129.329 135.003 129.329 238.779 129.329C342.555 129.329 444.782 129.329 548.558 129.329C652.334 129.329 754.561 129.329 858.337 129.329C962.113 129.329 1064.34 129.329 1168.12 129.329C1271.89 129.329 1374.12 129.329 1477.89 129.329C1581.67 129.329 1683.9 129.329 1736.56 129.329H1787.67V0Z" fill="#A90707"/>
<path fill-rule="evenodd" clip-rule="evenodd" d="M1787 84.6389L1738.71 76.2816C1688.96 67.9243 1592.38 51.2097 1494.33 49.1204C1396.29 47.031 1299.71 59.567 1201.67 74.1922C1103.62 88.8175 1007.04 105.532 909 109.711C810.957 113.889 714.377 105.532 616.333 90.9068C518.29 76.2816 421.71 55.3883 323.667 55.3883C225.623 55.3883 129.043 76.2816 79.2899 86.7282L31 97.1748V147.319H79.2899C129.043 147.319 225.623 147.319 323.667 147.319C421.71 147.319 518.29 147.319 616.333 147.319C714.377 147.319 810.957 147.319 909 147.319C1007.04 147.319 1103.62 147.319 1201.67 147.319C1299.71 147.319 1396.29 147.319 1494.33 147.319C1592.38 147.319 1688.96 147.319 1738.71 147.319H1787V84.6389Z" fill="#9A0303"/>
<path fill-rule="evenodd" clip-rule="evenodd" d="M-71 77.5057L-32.2708 68.3689C6.45834 59.2321 83.9167 40.9585 161.375 50.0953C238.833 59.2321 316.292 95.7794 393.75 100.348C471.208 104.916 548.667 77.5057 626.125 75.2215C703.583 72.9373 781.042 95.7794 858.5 98.0636C935.958 100.348 1013.42 82.0742 1090.88 79.7899C1168.33 77.5057 1245.79 91.211 1323.25 95.7794C1400.71 100.348 1478.17 95.7794 1555.62 98.0636C1633.08 100.348 1710.54 109.485 1749.27 114.053L1788 118.621V146.032H1749.27C1710.54 146.032 1633.08 146.032 1555.62 146.032C1478.17 146.032 1400.71 146.032 1323.25 146.032C1245.79 146.032 1168.33 146.032 1090.88 146.032C1013.42 146.032 935.958 146.032 858.5 146.032C781.042 146.032 703.583 146.032 626.125 146.032C548.667 146.032 471.208 146.032 393.75 146.032C316.292 146.032 238.833 146.032 161.375 146.032C83.9167 146.032 6.45834 146.032 -32.2708 146.032H-71V77.5057Z" fill="#A00303"/>
<path fill-rule="evenodd" clip-rule="evenodd" d="M221.244 118.944L251.306 121.584C281.369 124.224 342.859 129.503 402.984 121.584C464.475 113.665 524.599 92.5493 586.09 89.9098C646.214 87.2703 707.705 103.107 767.829 103.107C827.954 103.107 889.445 87.2703 949.569 92.5493C1011.06 97.8283 1071.18 124.224 1132.67 134.782C1192.8 145.34 1254.29 140.061 1314.41 129.503C1374.54 118.944 1436.03 103.107 1496.15 89.9098C1557.65 76.7122 1617.77 66.1541 1679.26 79.3517C1739.38 92.5493 1800.88 129.503 1830.94 147.979L1861 166.456V182.293H1830.94C1800.88 182.293 1739.38 182.293 1679.26 182.293C1617.77 182.293 1557.65 182.293 1496.15 182.293C1436.03 182.293 1374.54 182.293 1314.41 182.293C1254.29 182.293 1192.8 182.293 1132.67 182.293C1071.18 182.293 1011.06 182.293 949.569 182.293C889.445 182.293 827.954 182.293 767.829 182.293C707.705 182.293 646.214 182.293 586.09 182.293C524.599 182.293 464.475 182.293 402.984 182.293C342.859 182.293 281.369 182.293 251.306 182.293H221.244V118.944Z" fill="#BD0C0C"/>
<path fill-rule="evenodd" clip-rule="evenodd" d="M1786.61 121.639L1752.55 129.293C1718.5 136.946 1648.84 152.253 1580.73 163.733C1511.06 175.213 1442.95 182.867 1373.29 177.127C1305.18 171.387 1235.52 152.253 1167.41 148.426C1099.29 144.6 1029.63 156.08 961.522 152.253C891.861 148.426 823.749 129.293 754.089 119.726C685.976 110.159 616.316 110.159 548.203 108.246C480.091 106.333 410.431 102.506 342.318 106.333C272.658 110.159 204.545 121.639 134.885 123.553C66.7726 125.466 -2.88782 117.813 -36.944 113.986L-71.0001 110.159V202H-36.944C-2.88782 202 66.7726 202 134.885 202C204.545 202 272.658 202 342.318 202C410.431 202 480.091 202 548.203 202C616.316 202 685.976 202 754.089 202C823.749 202 891.861 202 961.522 202C1029.63 202 1099.29 202 1167.41 202C1235.52 202 1305.18 202 1373.29 202C1442.95 202 1511.06 202 1580.73 202C1648.84 202 1718.5 202 1752.55 202H1786.61V121.639Z" fill="#B51A1A"/>
<path fill-rule="evenodd" clip-rule="evenodd" d="M-1 140L47.0975 160.074C96.6525 180.149 192.848 220.297 290.5 217.429C388.152 214.562 484.348 168.678 582 160.074C679.652 151.471 775.847 180.149 873.5 183.016C971.152 185.884 1067.35 162.942 1165 162.942C1262.65 162.942 1358.85 185.884 1456.5 185.884C1554.15 185.884 1650.35 162.942 1699.9 151.471L1748 140V277.652H1699.9C1650.35 277.652 1554.15 277.652 1456.5 277.652C1358.85 277.652 1262.65 277.652 1165 277.652C1067.35 277.652 971.152 277.652 873.5 277.652C775.847 277.652 679.652 277.652 582 277.652C484.348 277.652 388.152 277.652 290.5 277.652C192.848 277.652 96.6525 277.652 47.0975 277.652H-1V140Z" fill="#D20D0D"/>
<path fill-rule="evenodd" clip-rule="evenodd" d="M0 209.544L39.325 200.649C79.8417 191.754 158.492 173.964 238.333 171.74C318.175 169.516 396.825 182.859 476.667 198.426C556.508 213.992 635.158 231.782 715 236.23C794.842 240.677 873.492 231.782 953.333 216.216C1033.18 200.649 1111.83 178.412 1191.67 178.412C1271.51 178.412 1350.16 200.649 1390.68 211.768L1430 222.887V276.258H1390.68C1350.16 276.258 1271.51 276.258 1191.67 276.258C1111.83 276.258 1033.18 276.258 953.333 276.258C873.492 276.258 794.842 276.258 715 276.258C635.158 276.258 556.508 276.258 476.667 276.258C396.825 276.258 318.175 276.258 238.333 276.258C158.492 276.258 79.8417 276.258 39.325 276.258H0V209.544Z" fill="#D32424"/>
<path fill-rule="evenodd" clip-rule="evenodd" d="M1748 223.187L1711.56 209.902C1675.12 196.618 1602.25 170.05 1529.38 183.334C1456.5 196.618 1383.62 249.755 1310.75 256.397C1237.88 263.039 1165 223.187 1092.12 219.866C1019.25 216.545 946.375 249.755 873.5 253.076C800.625 256.397 727.75 229.829 654.875 226.508C582 223.187 509.125 243.113 436.25 249.755C363.375 256.397 290.5 249.755 217.625 253.076C144.75 256.397 71.875 269.681 35.4375 276.324L-1 282.966V322.818H35.4375C71.875 322.818 144.75 322.818 217.625 322.818C290.5 322.818 363.375 322.818 436.25 322.818C509.125 322.818 582 322.818 654.875 322.818C727.75 322.818 800.625 322.818 873.5 322.818C946.375 322.818 1019.25 322.818 1092.12 322.818C1165 322.818 1237.88 322.818 1310.75 322.818C1383.62 322.818 1456.5 322.818 1529.38 322.818C1602.25 322.818 1675.12 322.818 1711.56 322.818H1748V223.187Z" fill="#BF1818"/>
<path fill-rule="evenodd" clip-rule="evenodd" d="M1473 266.599L1444.71 269.409C1416.42 272.218 1358.56 277.837 1301.98 269.409C1244.12 260.98 1187.54 238.505 1129.68 235.696C1073.11 232.887 1015.24 249.743 958.667 249.743C902.09 249.743 844.227 232.887 787.651 238.505C729.788 244.124 673.212 272.218 615.349 283.456C558.772 294.693 500.91 289.074 444.333 277.837C387.757 266.599 329.894 249.743 273.318 235.696C215.455 221.649 158.878 210.412 101.016 224.458C44.4391 238.505 -13.4233 277.837 -41.7117 297.502L-70 317.168V334.025H-41.7117C-13.4233 334.025 44.4391 334.025 101.016 334.025C158.878 334.025 215.455 334.025 273.318 334.025C329.894 334.025 387.757 334.025 444.333 334.025C500.91 334.025 558.772 334.025 615.349 334.025C673.212 334.025 729.788 334.025 787.651 334.025C844.227 334.025 902.09 334.025 958.667 334.025C1015.24 334.025 1073.11 334.025 1129.68 334.025C1187.54 334.025 1244.12 334.025 1301.98 334.025C1358.56 334.025 1416.42 334.025 1444.71 334.025H1473V266.599Z" fill="#CB1414"/>
<path fill-rule="evenodd" clip-rule="evenodd" d="M0 269.468L32.0467 277.614C64.0933 285.76 129.643 302.052 193.737 314.27C259.287 326.489 323.38 334.635 388.93 328.526C453.023 322.416 518.573 302.052 582.667 297.979C646.76 293.906 712.31 306.125 776.403 302.052C841.953 297.979 906.047 277.614 971.597 267.431C1035.69 257.249 1101.24 257.249 1165.33 255.212C1229.43 253.176 1294.98 249.103 1359.07 253.176C1424.62 257.249 1488.71 269.468 1554.26 271.504C1618.36 273.541 1683.91 265.395 1715.95 261.322L1748 257.249V355H1715.95C1683.91 355 1618.36 355 1554.26 355C1488.71 355 1424.62 355 1359.07 355C1294.98 355 1229.43 355 1165.33 355C1101.24 355 1035.69 355 971.597 355C906.047 355 841.953 355 776.403 355C712.31 355 646.76 355 582.667 355C518.573 355 453.023 355 388.93 355C323.38 355 259.287 355 193.737 355C129.643 355 64.0933 355 32.0467 355H0V269.468Z" fill="#B31C1C"/>
</svg>
