<svg width="174" height="365" viewBox="0 0 174 365" fill="none" xmlns="http://www.w3.org/2000/svg">
<path d="M73.3992 61.2031L73.3991 326.416L0 329.077L73.3992 61.2031Z" fill="#F3F3F3"/>
<path d="M73.1774 61.2031L73.1774 326.416L7.76123 329.077L73.1774 61.2031Z" fill="#E2E2E2"/>
<path d="M81.1606 4.87842C106.977 128.207 126.796 195.863 173.63 313.332L81.1607 320.872L81.1606 4.87842Z" fill="#F3F3F3"/>
<path d="M80.939 114.423C92.9672 194.35 102.381 238.818 123.737 317.546L80.939 320.872L80.939 114.423Z" fill="#E2E2E2"/>
<rect x="74.9517" width="4.87849" height="329.077" fill="#F9F9F9"/>
<rect x="76.7256" width="3.1045" height="329.077" fill="#CCCCCC"/>
<path d="M4.87842 343.712L170.747 347.26L168.026 354.766C165.799 360.909 159.965 365 153.431 365H21.5096L4.87842 343.712Z" fill="#E2E2E2"/>
<path d="M8.64795 343.49L42.3539 344.155C42.3539 344.155 74.2859 350.364 85.5951 354.799C95.7956 359.9 128.836 359.9 128.836 359.9C141.972 359.07 156.555 354.578 166.534 347.038C170.082 347.038 170.747 347.26 170.747 347.26L168.026 354.766C165.799 360.909 159.965 365 153.43 365H23.0617L8.64795 343.49Z" fill="#B3B3B3"/>
<path d="M1.99561 338.169L170.747 343.712V347.26L4.87835 343.712L1.99561 338.169Z" fill="#646464"/>
<path d="M1.99561 336.838L140.811 342.604L1.99561 338.169V336.838Z" fill="#F3F3F3"/>
<path d="M40.2048 337.975L39.915 338.168L59.8725 339.277C61.8004 336.11 65.24 334.177 68.9478 334.177H85.5955L74.2862 329.298L71.1817 331.959L57.1374 332.494C51.0957 332.725 45.2354 334.621 40.2048 337.975Z" fill="#F3F3F3"/>
<path d="M74.508 329.077V331.738L57.2115 334.399L55.4375 339.943L150.125 343.047L149.515 341.044C148.95 339.186 147.278 337.884 145.338 337.789L121.297 336.616C121.297 332.452 117.922 329.077 113.758 329.077H94.2437L93.8002 327.746H76.7255V329.077H74.508Z" fill="#CCCCCC"/>
<path d="M93.5786 327.746H115.754C117.713 327.746 119.302 329.335 119.302 331.294H93.5786V327.746Z" fill="#D9D9D9"/>
<path d="M89.7626 336.06C89.9229 335.596 90.3592 335.286 90.8493 335.286H99.9679C100.603 335.286 101.118 335.801 101.118 336.436V339.901C101.118 340.536 100.603 341.051 99.9679 341.051H89.6497C88.8592 341.051 88.3044 340.272 88.563 339.525L89.7626 336.06Z" fill="#646464"/>
<path d="M105.377 336.48C105.352 335.828 105.874 335.286 106.526 335.286H113.633C114.109 335.286 114.536 335.579 114.706 336.023L116.039 339.488C116.329 340.242 115.773 341.051 114.966 341.051H106.659C106.041 341.051 105.534 340.563 105.51 339.945L105.377 336.48Z" fill="#646464"/>
</svg>
