<svg width="234" height="234" viewBox="0 0 234 234" fill="none" xmlns="http://www.w3.org/2000/svg">
<path d="M107.25 170.625C104.569 170.625 102.375 172.819 102.375 175.5V195H78C75.3187 195 73.125 197.194 73.125 199.875V214.5C73.125 217.181 75.3187 219.375 78 219.375H156C158.681 219.375 160.875 217.181 160.875 214.5V199.875C160.875 197.194 158.681 195 156 195H131.625V175.5C131.625 172.819 129.431 170.625 126.75 170.625H121.875V160.582C143.764 158.145 160.875 139.522 160.875 117V58.5C160.875 34.32 141.18 14.625 117 14.625C92.82 14.625 73.125 34.32 73.125 58.5V117C73.125 139.522 90.2363 158.145 112.125 160.582V170.625H107.25ZM83.265 121.875H97.5C100.181 121.875 102.375 119.681 102.375 117C102.375 114.319 100.181 112.125 97.5 112.125H82.875V102.375H97.5C100.181 102.375 102.375 100.181 102.375 97.5C102.375 94.8187 100.181 92.625 97.5 92.625H82.875V82.875H97.5C100.181 82.875 102.375 80.6813 102.375 78C102.375 75.3187 100.181 73.125 97.5 73.125H82.875V63.375H97.5C100.181 63.375 102.375 61.1813 102.375 58.5C102.375 55.8187 100.181 53.625 97.5 53.625H83.265C85.6537 37.0987 99.84 24.375 117 24.375C134.16 24.375 148.346 37.0987 150.735 53.625H136.5C133.819 53.625 131.625 55.8187 131.625 58.5C131.625 61.1813 133.819 63.375 136.5 63.375H151.125V73.125H136.5C133.819 73.125 131.625 75.3187 131.625 78C131.625 80.6813 133.819 82.875 136.5 82.875H151.125V92.625H136.5C133.819 92.625 131.625 94.8187 131.625 97.5C131.625 100.181 133.819 102.375 136.5 102.375H151.125V112.125H136.5C133.819 112.125 131.625 114.319 131.625 117C131.625 119.681 133.819 121.875 136.5 121.875H150.735C148.346 138.401 134.16 151.125 117 151.125C99.84 151.125 85.6537 138.401 83.265 121.875ZM121.875 180.375V199.875C121.875 202.556 124.069 204.75 126.75 204.75H151.125V209.625H82.875V204.75H107.25C109.931 204.75 112.125 202.556 112.125 199.875V180.375H121.875Z" fill="black"/>
</svg>
