<svg width="686" height="468" viewBox="0 0 686 468" fill="none" xmlns="http://www.w3.org/2000/svg">
<path d="M255.812 77.3423C276.521 77.3423 293.309 60.5696 293.309 39.8794C293.309 19.1892 276.521 2.4165 255.812 2.4165C235.103 2.4165 218.315 19.1892 218.315 39.8794C218.315 60.5696 235.103 77.3423 255.812 77.3423Z" fill="#EC1015"/>
<path d="M323.479 11.1361C305.306 8.68194 284.559 18.4955 279.849 36.2021C278.662 33.0538 276.504 30.3641 273.687 28.5215C270.87 26.6788 267.539 25.7787 264.176 25.9511C260.814 26.1235 257.593 27.3595 254.979 29.4806C252.365 31.6017 250.494 34.498 249.636 37.7511L251.716 39.2398C290.66 47.6537 330.972 47.4716 369.838 38.7062C357.197 25.4334 341.651 13.5902 323.479 11.1361Z" fill="#F0F0F0"/>
<path d="M245.544 61.0867C227.372 58.6326 206.625 68.4461 201.915 86.1527C200.728 83.0045 198.57 80.3147 195.752 78.4721C192.935 76.6295 189.605 75.7293 186.242 75.9017C182.879 76.0741 179.658 77.3102 177.044 79.4312C174.431 81.5523 172.56 84.4486 171.701 87.7017L173.782 89.1904C212.725 97.6044 253.038 97.4223 291.903 88.6569C279.263 75.384 263.717 63.5408 245.544 61.0867Z" fill="#F0F0F0"/>
<path d="M331.413 158.855C325.262 148.692 317.974 137.84 306.559 134.521C293.34 130.677 279.761 138.312 268.243 145.847C233.797 168.379 200.625 192.798 168.879 218.991L168.913 219.385C193.629 217.682 218.345 215.979 243.06 214.277C260.918 213.046 279.388 211.646 295.169 203.206C301.157 200.004 306.994 195.726 313.78 195.428C322.211 195.057 329.562 200.94 335.338 207.086C369.51 243.441 379.399 299.037 417.736 330.978C393.562 271.414 364.697 213.859 331.413 158.855Z" fill="#F2F2F2"/>
<path d="M541.461 467.214C537.682 462.447 536.138 461.33 532.411 456.519C502.06 417.3 473.533 376.757 446.83 334.889C428.691 306.454 411.453 277.473 395.113 247.946C387.335 233.908 379.769 219.761 372.417 205.503C366.712 194.448 361.134 183.326 355.683 172.139C354.124 168.943 352.61 165.733 351.103 162.516C347.551 154.95 344.066 147.347 340.324 139.884C336.06 131.378 330.869 122.46 323.038 116.745C319.475 114.037 315.214 112.399 310.753 112.022C304.378 111.61 298.496 114.24 292.967 117.112C252.515 138.187 214.643 164.609 180.389 194.675C146.047 224.809 115.35 258.852 88.9259 296.112C88.1174 297.265 86.2057 296.163 87.0217 295.002C90.2348 290.463 93.5115 285.972 96.8519 281.53C138.387 226.34 189.316 178.878 247.309 141.316C257.066 134.999 267.007 128.978 277.131 123.253C282.233 120.366 287.358 117.516 292.57 114.843C297.68 112.22 303.106 109.862 308.944 109.774C328.81 109.465 339.096 131.943 346.162 147.068C348.382 151.828 350.629 156.573 352.904 161.304C361.498 179.264 370.424 197.06 379.681 214.692C385.393 225.578 391.231 236.401 397.194 247.16C415.751 280.664 435.475 313.489 456.366 345.636C484.04 388.219 511.493 425.836 543.02 465.657C543.888 466.759 542.336 468.331 541.461 467.214Z" fill="#E4E4E4"/>
<path d="M178.426 183.576C177.272 182.29 176.125 181.005 174.963 179.72C165.802 169.597 155.972 159.592 143.392 153.789C137.394 150.935 130.846 149.419 124.202 149.345C117.335 149.367 110.623 151.167 104.278 153.686C101.278 154.884 98.3443 156.243 95.4551 157.69C92.1537 159.35 88.9113 161.12 85.6839 162.905C79.6254 166.255 73.6455 169.751 67.7443 173.395C56.0025 180.645 44.6284 188.449 33.622 196.806C27.9165 201.139 22.3286 205.615 16.8585 210.233C11.7708 214.523 6.78596 218.928 1.90403 223.448C0.860064 224.411 -0.698685 222.853 0.345257 221.891C1.63191 220.694 2.93327 219.504 4.23463 218.328C7.91079 215.008 11.6458 211.752 15.4397 208.559C22.358 202.726 29.4555 197.119 36.7321 191.737C48.0474 183.363 59.7522 175.557 71.8466 168.319C77.8903 164.705 84.0173 161.243 90.2274 157.932C92.1024 156.933 93.9994 155.956 95.9183 155.031C100.272 152.836 104.796 150.997 109.446 149.529C116.033 147.4 123.003 146.716 129.879 147.523C136.517 148.488 142.914 150.699 148.73 154.039C161.082 160.937 170.662 171.603 179.985 182.011C180.926 183.069 179.374 184.634 178.426 183.576Z" fill="#E4E4E4"/>
<path d="M431.51 288.47L461.108 277.654L475.803 272.284C480.589 270.535 485.364 268.544 490.312 267.292C494.686 266.185 499.131 266.004 503.444 267.459C507.249 268.866 510.732 271.024 513.686 273.803C516.704 276.579 519.512 279.575 522.087 282.766C525.287 286.608 528.439 290.49 531.605 294.359C544.673 310.326 557.656 326.363 570.553 342.469C583.45 358.575 596.261 374.749 608.986 390.992C621.742 407.274 634.409 423.625 646.99 440.043C648.531 442.055 650.071 444.067 651.609 446.08C652.459 447.193 654.376 446.096 653.514 444.968C640.841 428.384 628.079 411.869 615.229 395.421C602.348 378.934 589.378 362.516 576.319 346.169C563.259 329.822 550.112 313.546 536.877 297.34C533.579 293.303 530.276 289.27 526.968 285.242C524.178 281.844 521.418 278.409 518.358 275.247C512.739 269.441 505.72 264.311 497.317 264.171C492.377 264.09 487.596 265.656 483.006 267.315C478.058 269.103 473.122 270.925 468.18 272.731L438.375 283.622L430.923 286.345C429.601 286.829 430.172 288.959 431.51 288.47Z" fill="#E4E4E4"/>
<path d="M139.497 166.526C124.456 158.803 105.194 160.316 91.3721 169.965C117.736 174.509 143.811 180.589 169.465 188.175C158.812 181.938 150.479 172.165 139.497 166.526Z" fill="#F2F2F2"/>
<path d="M91.224 169.938L88.3284 172.29C89.3078 171.467 90.326 170.695 91.372 169.965C91.3226 169.956 91.2734 169.947 91.224 169.938Z" fill="#F2F2F2"/>
<path d="M512.572 288.578C509.658 285.035 506.508 281.325 502.15 279.886L498.082 280.046C529.054 334.725 570.884 382.503 621.004 420.448C584.86 376.492 548.716 332.535 512.572 288.578Z" fill="#F2F2F2"/>
<path d="M209.577 426.98C211.236 413.653 219.503 400.521 232.225 396.184C227.207 409.902 227.209 424.95 232.228 438.667C234.183 443.95 236.907 449.623 235.069 454.947C233.925 458.26 231.126 460.795 227.997 462.38C224.868 463.965 221.396 464.72 217.967 465.461L217.293 466.018C211.849 453.739 207.918 440.307 209.577 426.98Z" fill="#F0F0F0"/>
<path d="M232.351 396.436C224.942 404.73 220.338 415.145 219.191 426.202C218.902 428.578 218.989 430.984 219.45 433.333C219.973 435.607 221.096 437.699 222.702 439.392C224.168 441.001 225.854 442.477 226.902 444.414C227.424 445.413 227.729 446.511 227.797 447.637C227.864 448.762 227.692 449.889 227.293 450.943C226.368 453.597 224.543 455.759 222.685 457.812C220.621 460.091 218.442 462.426 217.565 465.448C217.459 465.814 216.897 465.628 217.003 465.262C218.529 460.005 223.637 457.019 226.073 452.283C227.21 450.074 227.687 447.509 226.621 445.176C225.689 443.137 223.952 441.613 222.454 439.997C220.863 438.368 219.696 436.375 219.053 434.191C218.474 431.873 218.294 429.474 218.521 427.096C218.945 421.734 220.211 416.472 222.272 411.503C224.592 405.819 227.868 400.573 231.959 395.992C232.212 395.709 232.603 396.155 232.351 396.436Z" fill="white"/>
<path d="M219.351 422.62C217.52 422.176 215.907 421.096 214.799 419.573C213.692 418.051 213.162 416.184 213.305 414.308C213.335 413.928 213.927 413.957 213.897 414.337C213.761 416.085 214.254 417.823 215.288 419.239C216.323 420.655 217.829 421.654 219.536 422.058C219.907 422.146 219.719 422.707 219.351 422.62Z" fill="white"/>
<path d="M221.851 438.674C225.158 436.702 227.599 433.556 228.687 429.866C228.795 429.5 229.357 429.686 229.25 430.051C228.11 433.89 225.563 437.158 222.118 439.203C221.789 439.397 221.525 438.868 221.851 438.674Z" fill="white"/>
<path d="M225.141 406.379C225.814 406.699 226.555 406.846 227.299 406.808C228.042 406.771 228.765 406.549 229.402 406.163C229.728 405.964 229.992 406.494 229.668 406.692C228.963 407.115 228.164 407.359 227.343 407.402C226.521 407.446 225.702 407.287 224.956 406.941C224.882 406.915 224.822 406.861 224.787 406.792C224.752 406.722 224.745 406.642 224.767 406.568C224.792 406.493 224.845 406.432 224.915 406.397C224.986 406.361 225.067 406.355 225.141 406.379Z" fill="white"/>
<path d="M271.003 419.989C270.803 420.118 270.603 420.248 270.402 420.383C267.723 422.143 265.192 424.118 262.832 426.288C262.647 426.453 262.462 426.623 262.282 426.793C256.654 432.081 252.058 438.367 248.727 445.331C247.404 448.104 246.294 450.973 245.407 453.914C244.182 457.975 243.177 462.476 240.752 465.798C240.503 466.148 240.232 466.482 239.942 466.798H218.026C217.976 466.773 217.926 466.753 217.876 466.728L217.001 466.768C217.036 466.613 217.076 466.453 217.111 466.298C217.131 466.208 217.156 466.118 217.176 466.028C217.191 465.968 217.206 465.908 217.216 465.853C217.221 465.833 217.226 465.813 217.231 465.798C217.241 465.743 217.256 465.694 217.266 465.644C217.486 464.749 217.713 463.855 217.946 462.961C217.946 462.956 217.946 462.956 217.951 462.951C219.664 456.12 222.181 449.516 225.451 443.278C225.551 443.093 225.651 442.903 225.761 442.719C227.275 439.957 229.013 437.324 230.956 434.846C232.025 433.492 233.162 432.193 234.362 430.954C237.468 427.759 241.059 425.071 245.002 422.991C252.862 418.845 261.962 417.256 270.363 419.789C270.577 419.854 270.788 419.919 271.003 419.989Z" fill="#F0F0F0"/>
<path d="M270.953 420.266C260.04 422.432 250.087 427.978 242.509 436.117C240.846 437.84 239.466 439.814 238.418 441.967C237.466 444.096 237.102 446.442 237.364 448.76C237.564 450.926 238.021 453.119 237.691 455.296C237.505 456.408 237.087 457.469 236.463 458.408C235.838 459.347 235.022 460.143 234.068 460.745C231.73 462.307 228.97 462.936 226.249 463.457C223.228 464.036 220.081 464.589 217.56 466.475C217.255 466.703 216.918 466.216 217.223 465.988C221.609 462.708 227.487 463.396 232.286 461.081C234.525 460 236.452 458.239 237.007 455.736C237.492 453.547 237.023 451.285 236.801 449.094C236.512 446.836 236.781 444.542 237.584 442.413C238.519 440.214 239.821 438.19 241.435 436.427C245.005 432.401 249.186 428.961 253.826 426.233C259.104 423.09 264.881 420.873 270.908 419.676C271.281 419.602 271.324 420.193 270.953 420.266Z" fill="white"/>
<path d="M244.795 433.352C243.601 431.897 242.963 430.064 242.997 428.182C243.03 426.301 243.732 424.492 244.977 423.079C245.23 422.794 245.685 423.173 245.431 423.459C244.27 424.772 243.616 426.457 243.589 428.21C243.561 429.962 244.162 431.666 245.282 433.015C245.525 433.309 245.036 433.644 244.795 433.352Z" fill="white"/>
<path d="M237.117 447.675C240.946 448.089 244.79 447.046 247.883 444.754C248.189 444.527 248.526 445.014 248.22 445.241C244.997 447.62 240.994 448.697 237.011 448.258C236.631 448.215 236.739 447.633 237.117 447.675Z" fill="white"/>
<path d="M259.205 423.869C259.55 424.528 260.053 425.092 260.669 425.509C261.286 425.926 261.996 426.184 262.737 426.259C263.117 426.296 263.009 426.878 262.631 426.841C261.813 426.755 261.029 426.469 260.347 426.01C259.664 425.55 259.105 424.931 258.718 424.206C258.676 424.14 258.66 424.062 258.674 423.985C258.688 423.909 258.73 423.84 258.793 423.794C258.858 423.75 258.937 423.733 259.014 423.747C259.091 423.761 259.16 423.805 259.205 423.869Z" fill="white"/>
<path d="M368.918 354.563C358.169 330.808 358.565 300.697 375.248 280.651C380.829 308.448 396.072 333.376 418.279 351.026C426.868 357.802 437.127 364.444 439.473 375.124C440.933 381.769 438.864 388.798 435.286 394.586C431.708 400.375 426.721 405.136 421.79 409.829L421.237 411.435C399.783 396.595 379.668 378.319 368.918 354.563Z" fill="#F0F0F0"/>
<path d="M375.712 280.94C371.839 302.169 374.758 324.078 384.057 343.555C385.984 347.783 388.567 351.682 391.709 355.107C394.878 358.344 398.857 360.675 403.232 361.856C407.29 363.04 411.577 363.781 415.276 365.93C417.153 367.057 418.77 368.569 420.022 370.365C421.273 372.161 422.13 374.201 422.537 376.351C423.69 381.683 422.857 387.11 421.858 392.389C420.749 398.251 419.504 404.322 421.111 410.215C421.306 410.929 420.186 411.189 419.991 410.476C417.195 400.224 422.632 390.113 421.872 379.805C421.518 374.996 419.71 370.264 415.582 367.477C411.973 365.04 407.552 364.272 403.434 363.109C399.148 362.019 395.195 359.897 391.92 356.929C388.614 353.675 385.885 349.882 383.852 345.714C379.125 336.402 375.893 326.405 374.274 316.09C372.36 304.328 372.475 292.325 374.613 280.601C374.746 279.876 375.844 280.22 375.712 280.94Z" fill="white"/>
<path d="M380.693 337.459C377.211 338.575 373.445 338.417 370.068 337.014C366.692 335.611 363.924 333.054 362.26 329.801C361.925 329.142 362.935 328.591 363.27 329.252C364.814 332.284 367.393 334.665 370.54 335.965C373.687 337.265 377.195 337.398 380.432 336.341C381.135 336.112 381.393 337.232 380.693 337.459Z" fill="white"/>
<path d="M401.096 361.527C404.576 354.917 405.434 347.239 403.5 340.024C403.307 339.31 404.427 339.049 404.619 339.763C406.618 347.274 405.709 355.263 402.073 362.133C401.726 362.788 400.751 362.178 401.096 361.527Z" fill="white"/>
<path d="M373.839 304.701C375.276 304.55 376.654 304.045 377.847 303.23C379.041 302.416 380.014 301.319 380.678 300.036C381.016 299.377 381.991 299.988 381.654 300.642C380.914 302.056 379.839 303.267 378.522 304.169C377.205 305.072 375.687 305.639 374.1 305.82C373.952 305.849 373.798 305.822 373.67 305.742C373.542 305.662 373.449 305.537 373.41 305.391C373.376 305.243 373.402 305.087 373.482 304.958C373.562 304.828 373.691 304.736 373.839 304.701Z" fill="white"/>
<path d="M463.597 280.883C463.397 281.301 463.197 281.718 463.002 282.144C460.346 287.768 458.152 293.599 456.442 299.579C456.302 300.039 456.168 300.507 456.041 300.971C452.074 315.421 450.826 330.481 452.361 345.386C452.977 351.317 454.044 357.192 455.553 362.961C457.636 370.927 460.53 379.4 459.877 387.355C459.818 388.186 459.708 389.012 459.547 389.829L423.241 411.984C423.133 411.993 423.03 412.011 422.922 412.02L421.513 412.971C421.414 412.679 421.318 412.374 421.22 412.082C421.162 411.913 421.112 411.738 421.054 411.569C421.018 411.455 420.982 411.34 420.943 411.239C420.931 411.201 420.919 411.163 420.912 411.133C420.873 411.032 420.848 410.934 420.814 410.841C420.272 409.137 419.742 407.427 419.223 405.709C419.218 405.701 419.218 405.701 419.221 405.688C415.299 392.593 412.437 379.056 411.722 365.515C411.701 365.108 411.674 364.692 411.669 364.275C411.381 358.17 411.593 352.051 412.302 345.98C412.701 342.657 413.269 339.356 414.002 336.091C415.913 327.656 419.139 319.575 423.564 312.142C432.386 297.327 445.853 285.496 462.334 281.199C462.756 281.09 463.17 280.985 463.597 280.883Z" fill="#F0F0F0"/>
<path d="M463.796 281.393C447.911 296.014 437.039 315.263 432.727 336.407C431.718 340.943 431.43 345.609 431.875 350.233C432.455 354.725 434.227 358.979 437.009 362.554C439.535 365.94 442.512 369.111 444.17 373.051C444.989 375.081 445.37 377.26 445.287 379.447C445.203 381.634 444.659 383.778 443.688 385.74C441.396 390.691 437.46 394.523 433.481 398.137C429.063 402.15 424.41 406.248 422.143 411.92C421.868 412.608 420.817 412.141 421.091 411.455C425.036 401.587 435.471 396.785 441.075 388.098C443.69 384.044 445.099 379.179 443.482 374.471C442.069 370.354 439.002 367.082 436.414 363.676C433.65 360.228 431.772 356.156 430.946 351.815C430.267 347.228 430.374 342.559 431.262 338.007C433.099 327.729 436.543 317.803 441.466 308.593C447.027 298.05 454.351 288.536 463.123 280.462C463.666 279.962 464.336 280.897 463.796 281.393Z" fill="white"/>
<path d="M433.714 329.517C430.262 328.313 427.35 325.921 425.499 322.77C423.649 319.619 422.979 315.913 423.611 312.314C423.742 311.586 424.88 311.754 424.749 312.483C424.155 315.833 424.778 319.285 426.508 322.216C428.237 325.147 430.958 327.364 434.18 328.466C434.88 328.707 434.41 329.756 433.714 329.517Z" fill="white"/>
<path d="M435.501 361.006C442.263 357.821 447.575 352.207 450.378 345.283C450.655 344.597 451.707 345.063 451.43 345.749C448.5 352.948 442.96 358.779 435.916 362.078C435.244 362.392 434.833 361.318 435.501 361.006Z" fill="white"/>
<path d="M447.982 299.238C449.221 299.982 450.625 300.407 452.069 300.475C453.513 300.543 454.951 300.252 456.254 299.627C456.921 299.305 457.331 300.379 456.668 300.699C455.225 301.382 453.637 301.702 452.041 301.631C450.446 301.559 448.893 301.098 447.517 300.289C447.381 300.223 447.275 300.108 447.22 299.968C447.166 299.827 447.167 299.671 447.224 299.531C447.286 299.392 447.401 299.283 447.543 299.228C447.685 299.174 447.843 299.177 447.982 299.238Z" fill="white"/>
<path d="M533.421 382.071L574.259 351.094L594.164 370.982L527.636 416.466L533.421 382.071Z" fill="#3F3D56"/>
<path d="M495.333 467.365H355.638L360.537 451.504C390.903 440.521 373.847 416.914 402.732 402.485C473.384 367.191 500.736 261.869 490.391 220.236L536.69 218.28C536.69 218.28 600.63 399.696 495.333 467.365Z" fill="#3F3D56"/>
<path d="M614.593 392.808C610.421 396.474 605.082 398.543 599.526 398.647C593.971 398.751 588.559 396.883 584.252 393.375L584.161 393.301L584.158 393.184C584.107 391.241 583.804 389.313 583.256 387.448C583.228 388.79 583.032 390.124 582.672 391.418L582.555 391.854L582.241 391.53C581.97 391.251 581.708 390.967 581.462 390.687C580.013 389.044 578.799 387.208 577.855 385.231C573.338 375.949 566.793 367.799 558.703 361.38C557.258 360.206 555.915 358.914 554.685 357.518C549.49 351.613 546.569 344.054 546.445 336.194C546.32 328.333 549 320.686 554.004 314.619C559.009 308.553 566.011 304.465 573.758 303.087C581.504 301.709 589.489 303.13 596.282 307.098L596.488 307.219L596.381 307.433C595.594 309.064 594.555 310.561 593.302 311.87C595.025 310.94 596.619 309.789 598.044 308.447L598.194 308.305L598.365 308.423C600.596 309.965 602.631 311.774 604.422 313.81L604.615 314.031C605.983 315.594 607.665 316.851 609.552 317.721C611.438 318.591 613.487 319.054 615.565 319.08C618.955 319.136 622.293 319.927 625.348 321.395C628.403 322.864 631.103 324.976 633.263 327.587C635.423 330.198 636.992 333.246 637.86 336.52C638.729 339.794 638.877 343.218 638.295 346.555L638.268 346.71L638.117 346.756C635.483 347.66 632.69 348.008 629.914 347.778C632.232 348.787 634.701 349.405 637.221 349.607L637.547 349.633L637.443 349.942C636.13 353.881 633.794 357.4 630.673 360.141L630.584 360.219C630.552 360.246 630.521 360.274 630.489 360.301C628.164 362.302 626.261 364.746 624.894 367.491C623.527 370.236 622.721 373.226 622.526 376.286C622.371 379.429 621.59 382.51 620.228 385.347C618.866 388.184 616.95 390.721 614.593 392.808Z" fill="#E20005"/>
<path opacity="0.15" d="M618.867 385.269C618.824 386.114 618.736 386.956 618.603 387.791C620.89 384.281 622.207 380.228 622.418 376.045C622.449 375.404 622.516 374.766 622.606 374.131C620.383 377.442 619.092 381.289 618.867 385.269Z" fill="black"/>
<path opacity="0.15" d="M626.254 356.761C628.119 357.568 630.082 358.122 632.094 358.41C632.868 357.593 633.583 356.722 634.233 355.802C631.666 356.66 628.952 356.987 626.254 356.761Z" fill="black"/>
<path opacity="0.15" d="M634.859 349.059C635.067 351.086 635.011 353.132 634.692 355.144C635.806 353.452 636.694 351.622 637.335 349.7L637.438 349.391L637.112 349.365C636.357 349.301 635.605 349.198 634.859 349.059Z" fill="black"/>
<path opacity="0.15" d="M632.687 326.798C630.526 324.348 627.878 322.375 624.911 321.004C621.944 319.634 618.724 318.896 615.457 318.838C613.379 318.812 611.33 318.349 609.443 317.479C607.556 316.61 605.874 315.352 604.507 313.789L604.314 313.568C602.522 311.532 600.488 309.723 598.256 308.181L598.086 308.064L597.935 308.205C596.51 309.547 594.916 310.698 593.194 311.628C594.447 310.32 595.486 308.822 596.272 307.191L596.38 306.977L596.173 306.856C591.67 304.223 586.607 302.69 581.398 302.384C576.189 302.078 570.981 303.006 566.2 305.094C561.419 307.181 557.199 310.368 553.885 314.395C550.571 318.422 548.258 323.175 547.132 328.265C549.3 324.462 552.201 321.126 555.668 318.451C559.135 315.776 563.099 313.815 567.33 312.681C571.561 311.548 575.975 311.265 580.317 311.848C584.658 312.432 588.841 313.87 592.622 316.08L592.829 316.201L592.721 316.415C591.935 318.047 590.896 319.544 589.643 320.852C591.365 319.922 592.959 318.772 594.384 317.43L594.534 317.288L594.705 317.405C596.936 318.948 598.971 320.757 600.762 322.793L600.956 323.014C602.323 324.577 604.005 325.834 605.892 326.704C607.779 327.574 609.828 328.037 611.905 328.062C617.338 328.154 622.571 330.126 626.712 333.641C630.852 337.156 633.644 341.998 634.611 347.34C635.759 347.134 636.894 346.859 638.009 346.514L638.16 346.468L638.186 346.313C638.796 342.857 638.618 339.307 637.666 335.928C636.714 332.55 635.012 329.429 632.687 326.798Z" fill="black"/>
<path d="M682.112 230.222C682.11 248.097 675.764 265.393 664.201 279.033C652.638 292.673 636.608 301.775 618.961 304.72L618.588 304.78L618.299 304.54C613.488 300.531 608.177 297.163 602.499 294.519C605.689 297.441 608.501 300.752 610.867 304.373L611.671 305.582L610.221 305.651C608.969 305.712 607.725 305.743 606.524 305.743C599.466 305.749 592.441 304.776 585.651 302.851C554.806 294.083 521.684 292.584 487.204 298.395C481.292 299.387 475.307 299.886 469.312 299.886C410.521 299.886 362.691 252.089 362.691 193.341C362.66 170.941 369.706 149.103 382.826 130.939C395.945 112.776 414.469 99.2134 435.757 92.1853L436.49 91.9428L436.78 92.6576C439.054 98.0268 440.468 103.721 440.969 109.529C442.383 103.39 442.988 97.0935 442.77 90.798L442.747 90.1333L443.394 89.9713C451.871 87.8605 460.575 86.7938 469.312 86.7951L470.258 86.799C476.949 86.8189 483.568 85.4297 489.686 82.7221C495.803 80.0145 501.28 76.0492 505.761 71.0848C513.108 63.0173 522.117 56.6357 532.168 52.379C542.219 48.1223 553.074 46.0915 563.985 46.4263C574.897 46.7612 585.607 49.4538 595.378 54.3188C605.148 59.1838 613.748 66.1058 620.586 74.6086L620.904 75.0023L620.694 75.4638C616.278 85.1888 611.466 92.2737 605.723 97.4548C613.093 94.0007 619.839 89.3503 625.687 83.6925L626.442 82.961L626.971 83.8692C633.711 95.416 637.259 108.544 637.254 121.91L637.253 122.291C637.252 122.426 637.252 122.561 637.252 122.696C637.252 143.142 645.166 162.522 659 175.925C666.277 182.982 672.07 191.42 676.038 200.744C680.007 210.068 682.072 220.09 682.112 230.222Z" fill="#FF5A5E"/>
<g opacity="0.15">
<path d="M589.701 51.752C587.095 56.0732 583.889 60.0033 580.177 63.4247C585.491 60.9322 590.487 57.8126 595.058 54.1327C593.304 53.2697 591.519 52.4762 589.701 51.752Z" fill="black"/>
<path d="M633.455 141.895C637.566 145.88 641.212 150.318 644.324 155.124C639.641 144.954 637.228 133.889 637.252 122.696C637.252 122.561 637.252 122.426 637.253 122.291L637.254 121.91C637.259 108.544 633.711 95.4159 626.972 83.8692L626.442 82.9609L625.687 83.6924C621.52 87.7169 616.892 91.2372 611.901 94.1806C613.188 112.567 620.871 129.703 633.455 141.895Z" fill="black"/>
<path d="M611.708 87.8802L611.707 88.2612C611.706 88.3956 611.706 88.5311 611.706 88.6657C611.706 89.407 611.719 90.1464 611.74 90.8847C615.3 86.1 618.304 80.9265 620.694 75.4637L620.904 75.0023L620.586 74.6085C616.598 69.6507 612.004 65.2116 606.911 61.3951C610.082 69.866 611.707 78.8363 611.708 87.8802Z" fill="black"/>
<path d="M659 175.925C655.364 172.391 652.133 168.463 649.366 164.214C654.32 174.759 656.763 186.307 656.503 197.953C656.243 209.599 653.288 221.026 647.868 231.34C642.448 241.654 634.712 250.573 625.265 257.4C615.818 264.227 604.917 268.776 593.416 270.689L593.042 270.75L592.753 270.51C587.942 266.501 582.631 263.133 576.953 260.489C580.144 263.411 582.955 266.722 585.321 270.343L586.126 271.551L584.675 271.621C583.423 271.682 582.179 271.712 580.978 271.712C573.92 271.719 566.895 270.745 560.105 268.821C529.261 260.053 496.138 258.554 461.658 264.364C455.746 265.357 449.762 265.856 443.766 265.856C417.634 265.876 392.413 256.266 372.929 238.867C381.572 257.105 395.215 272.52 412.276 283.321C429.337 294.122 449.115 299.866 469.312 299.886C475.307 299.886 481.292 299.387 487.204 298.395C521.684 292.584 554.806 294.083 585.651 302.851C592.441 304.775 599.466 305.749 606.524 305.742C607.725 305.742 608.969 305.712 610.221 305.651L611.671 305.581L610.867 304.373C608.501 300.752 605.69 297.441 602.499 294.519C608.177 297.163 613.488 300.531 618.299 304.54L618.588 304.78L618.961 304.719C632.772 302.424 645.672 296.34 656.223 287.146C666.773 277.951 674.559 266.009 678.712 252.651C682.865 239.293 683.221 225.045 679.74 211.497C676.259 197.949 669.079 185.633 659 175.925Z" fill="black"/>
</g>
<path d="M303.263 211.11C299.195 206.73 297.085 200.158 299.248 194.587C302.488 200.221 307.619 204.529 313.732 206.748C316.093 207.595 318.807 208.292 320.096 210.442C320.841 211.833 321.023 213.456 320.606 214.977C320.185 216.48 319.573 217.924 318.784 219.272L318.781 219.661C313.037 217.998 307.332 215.49 303.263 211.11Z" fill="#FF5A5E"/>
<path d="M505.358 338.156C501.289 333.776 499.179 327.203 501.343 321.632C504.583 327.267 509.714 331.575 515.827 333.794C518.188 334.641 520.902 335.338 522.19 337.488C522.936 338.878 523.118 340.501 522.7 342.022C522.279 343.526 521.667 344.969 520.879 346.317L520.876 346.707C515.131 345.043 509.426 342.536 505.358 338.156Z" fill="#FF5A5E"/>
<path d="M600.653 420.153C597.811 414.896 597.414 408.004 600.904 403.152C602.63 409.417 606.519 414.87 611.882 418.547C613.955 419.958 616.408 421.311 617.118 423.714C617.491 425.247 617.261 426.864 616.475 428.232C615.691 429.582 614.737 430.827 613.636 431.935L613.536 432.311C608.39 429.265 603.495 425.411 600.653 420.153Z" fill="#FF5A5E"/>
<path d="M669.342 318.63C666.5 313.373 666.103 306.481 669.593 301.629C671.319 307.894 675.208 313.347 680.571 317.024C682.645 318.434 685.098 319.788 685.807 322.191C686.18 323.724 685.95 325.341 685.165 326.709C684.381 328.059 683.427 329.304 682.326 330.412L682.225 330.788C677.08 327.742 672.185 323.888 669.342 318.63Z" fill="#FF5A5E"/>
<path d="M220.306 357.765C217.464 352.507 217.067 345.616 220.557 340.763C222.283 347.028 226.172 352.482 231.535 356.159C233.608 357.569 236.062 358.922 236.771 361.326C237.144 362.858 236.914 364.476 236.129 365.844C235.345 367.194 234.39 368.439 233.29 369.547L233.189 369.923C228.044 366.876 223.149 363.023 220.306 357.765Z" fill="#E6E6E6"/>
<path d="M476.965 408.116C479.433 388.285 491.735 368.746 510.665 362.292C503.199 382.704 503.201 405.096 510.669 425.507C513.578 433.368 517.633 441.809 514.897 449.732C513.194 454.661 509.03 458.433 504.374 460.792C499.719 463.15 494.552 464.274 489.45 465.375L488.446 466.205C480.347 447.933 474.497 427.947 476.965 408.116Z" fill="#E6E6E6"/>
<path d="M510.853 362.667C499.829 375.008 492.977 390.505 491.271 406.958C490.84 410.494 490.971 414.075 491.656 417.57C492.435 420.953 494.105 424.066 496.495 426.585C498.676 428.979 501.184 431.176 502.745 434.058C503.522 435.545 503.975 437.179 504.075 438.854C504.176 440.528 503.921 442.205 503.327 443.774C501.949 447.722 499.234 450.94 496.469 453.994C493.399 457.386 490.156 460.86 488.851 465.357C488.693 465.902 487.856 465.625 488.014 465.081C490.285 457.258 497.886 452.814 501.511 445.768C503.202 442.48 503.912 438.663 502.326 435.192C500.94 432.157 498.355 429.89 496.126 427.485C493.758 425.061 492.021 422.095 491.066 418.846C490.204 415.397 489.936 411.827 490.273 408.289C490.905 400.31 492.788 392.48 495.854 385.086C499.307 376.628 504.182 368.822 510.269 362.006C510.646 361.585 511.227 362.248 510.853 362.667Z" fill="white"/>
<path d="M491.508 401.628C488.784 400.967 486.384 399.361 484.736 397.095C483.088 394.829 482.3 392.052 482.512 389.26C482.557 388.695 483.438 388.738 483.393 389.304C483.19 391.904 483.925 394.491 485.464 396.597C487.002 398.704 489.244 400.192 491.784 400.792C492.336 400.923 492.057 401.759 491.508 401.628Z" fill="white"/>
<path d="M495.229 425.517C500.149 422.582 503.781 417.902 505.401 412.41C505.561 411.866 506.398 412.143 506.238 412.686C504.542 418.398 500.753 423.261 495.626 426.304C495.137 426.593 494.743 425.805 495.229 425.517Z" fill="white"/>
<path d="M500.125 377.462C501.125 377.937 502.229 378.157 503.335 378.101C504.442 378.045 505.517 377.715 506.464 377.141C506.949 376.845 507.342 377.634 506.861 377.927C505.811 378.557 504.623 378.919 503.401 378.984C502.178 379.049 500.959 378.814 499.848 378.299C499.74 378.259 499.65 378.179 499.598 378.076C499.546 377.973 499.535 377.853 499.568 377.742C499.605 377.632 499.684 377.54 499.789 377.488C499.893 377.436 500.014 377.426 500.125 377.462Z" fill="white"/>
<path d="M568.366 397.713C568.069 397.906 567.771 398.1 567.473 398.3C563.487 400.919 559.719 403.858 556.209 407.087C555.934 407.332 555.658 407.585 555.391 407.837C547.016 415.706 540.177 425.06 535.22 435.423C533.252 439.549 531.6 443.818 530.28 448.194C528.457 454.237 526.962 460.935 523.353 465.878C522.982 466.398 522.58 466.895 522.148 467.365H489.537C489.463 467.328 489.388 467.298 489.314 467.261L488.012 467.32C488.064 467.09 488.123 466.852 488.176 466.621C488.206 466.488 488.243 466.354 488.272 466.22C488.295 466.131 488.317 466.042 488.332 465.96C488.339 465.93 488.347 465.9 488.354 465.878C488.369 465.796 488.392 465.722 488.406 465.648C488.734 464.317 489.071 462.986 489.418 461.656C489.418 461.648 489.418 461.648 489.425 461.641C492.097 451.509 495.638 441.511 500.586 432.368C500.735 432.093 500.883 431.81 501.047 431.535C503.3 427.426 505.886 423.508 508.778 419.82C510.368 417.806 512.059 415.873 513.845 414.029C518.468 409.275 523.81 405.276 529.677 402.181C541.373 396.011 554.914 393.647 567.414 397.416C567.734 397.512 568.047 397.609 568.366 397.713Z" fill="#E6E6E6"/>
<path d="M568.293 398.126C552.054 401.349 537.244 409.601 525.967 421.712C523.493 424.276 521.439 427.213 519.881 430.416C518.464 433.585 517.922 437.076 518.311 440.525C518.61 443.749 519.289 447.011 518.798 450.251C518.522 451.906 517.9 453.483 516.971 454.881C516.042 456.278 514.828 457.463 513.408 458.359C509.929 460.682 505.821 461.618 501.773 462.394C497.278 463.255 492.595 464.079 488.844 466.884C488.389 467.224 487.888 466.5 488.342 466.16C494.869 461.28 503.616 462.304 510.756 458.858C514.088 457.251 516.955 454.63 517.78 450.905C518.502 447.648 517.805 444.283 517.474 441.022C517.044 437.662 517.445 434.249 518.64 431.08C520.03 427.808 521.967 424.796 524.369 422.174C529.681 416.183 535.904 411.065 542.807 407.005C550.661 402.328 559.258 399.029 568.225 397.248C568.78 397.138 568.844 398.017 568.293 398.126Z" fill="white"/>
<path d="M529.369 417.598C527.592 415.432 526.644 412.706 526.693 409.905C526.743 407.105 527.787 404.414 529.64 402.312C530.016 401.888 530.693 402.452 530.316 402.877C528.588 404.831 527.615 407.338 527.574 409.946C527.533 412.553 528.427 415.09 530.093 417.097C530.455 417.534 529.728 418.033 529.369 417.598Z" fill="white"/>
<path d="M517.945 438.911C523.642 439.527 529.362 437.975 533.964 434.564C534.42 434.226 534.922 434.951 534.466 435.288C529.67 438.828 523.714 440.431 517.787 439.777C517.222 439.715 517.383 438.848 517.945 438.911Z" fill="white"/>
<path d="M550.812 403.487C551.324 404.468 552.073 405.307 552.99 405.927C553.907 406.548 554.965 406.932 556.067 407.043C556.632 407.099 556.471 407.965 555.909 407.91C554.692 407.781 553.525 407.356 552.51 406.672C551.495 405.989 550.663 405.067 550.087 403.988C550.024 403.891 550.001 403.774 550.021 403.66C550.042 403.546 550.105 403.444 550.198 403.375C550.295 403.309 550.413 403.284 550.528 403.305C550.643 403.326 550.745 403.391 550.812 403.487Z" fill="white"/>
<path d="M311.438 410.835L284.372 390.305L271.18 403.485L315.273 433.631L311.438 410.835Z" fill="#3F3D56"/>
<path d="M336.681 467.365H429.267L426.02 456.853C405.894 449.574 417.198 433.928 398.054 424.364C351.229 400.973 333.1 331.17 339.957 303.576L309.271 302.28C309.271 302.28 266.894 422.516 336.681 467.365Z" fill="#3F3D56"/>
<path d="M252.383 407.001C252.253 404.973 251.719 402.991 250.813 401.172C249.907 399.353 248.646 397.733 247.105 396.407C247.084 396.388 247.063 396.37 247.042 396.352L246.983 396.3C244.915 394.484 243.366 392.151 242.496 389.541L242.428 389.336L242.643 389.319C244.313 389.185 245.95 388.775 247.486 388.107C245.646 388.259 243.795 388.028 242.049 387.429L241.949 387.399L241.932 387.296C241.546 385.085 241.644 382.816 242.22 380.645C242.795 378.475 243.835 376.456 245.266 374.725C246.698 372.995 248.488 371.595 250.512 370.621C252.537 369.648 254.749 369.124 256.996 369.086C258.373 369.069 259.731 368.763 260.981 368.186C262.232 367.61 263.347 366.776 264.253 365.74L264.381 365.594C265.569 364.245 266.917 363.046 268.396 362.023L268.509 361.946L268.608 362.04C269.553 362.929 270.609 363.692 271.751 364.308C270.92 363.441 270.232 362.448 269.711 361.367L269.639 361.225L269.776 361.145C274.279 358.516 279.57 357.574 284.704 358.487C289.839 359.401 294.479 362.11 297.796 366.13C301.113 370.151 302.889 375.22 302.807 380.429C302.724 385.639 300.788 390.648 297.345 394.562C296.53 395.488 295.64 396.344 294.682 397.122C289.32 401.376 284.983 406.778 281.989 412.929C281.363 414.24 280.559 415.457 279.598 416.546C279.435 416.731 279.261 416.919 279.082 417.104L278.874 417.319L278.796 417.03C278.558 416.172 278.428 415.288 278.409 414.398C278.046 415.635 277.846 416.913 277.812 418.2L277.81 418.278L277.749 418.327C275.517 420.148 272.822 421.312 269.965 421.692C267.109 422.071 264.203 421.65 261.572 420.475C258.941 419.301 256.689 417.419 255.066 415.039C253.443 412.66 252.514 409.877 252.383 407.001Z" fill="#E6E6E6"/>
<path opacity="0.15" d="M254.808 412.955C254.836 413.514 254.895 414.072 254.983 414.626C253.467 412.3 252.594 409.613 252.455 406.841C252.434 406.416 252.389 405.994 252.33 405.573C253.803 407.767 254.659 410.317 254.808 412.955Z" fill="black"/>
<path opacity="0.15" d="M249.912 394.06C248.676 394.595 247.374 394.963 246.042 395.154C245.528 394.612 245.054 394.034 244.624 393.425C246.325 393.994 248.124 394.21 249.912 394.06Z" fill="black"/>
<path opacity="0.15" d="M244.208 388.956C244.071 390.299 244.108 391.655 244.319 392.989C243.581 391.867 242.992 390.655 242.568 389.381L242.5 389.176L242.715 389.159C243.216 389.116 243.714 389.048 244.208 388.956Z" fill="black"/>
<path opacity="0.15" d="M245.648 374.202C247.08 372.578 248.836 371.271 250.802 370.362C252.768 369.454 254.902 368.965 257.068 368.926C258.445 368.909 259.803 368.602 261.053 368.026C262.304 367.449 263.419 366.616 264.325 365.58L264.453 365.434C265.641 364.084 266.989 362.885 268.468 361.863L268.581 361.785L268.68 361.879C269.625 362.769 270.681 363.531 271.823 364.148C270.992 363.281 270.304 362.288 269.782 361.207L269.711 361.065L269.848 360.985C272.833 359.24 276.188 358.224 279.641 358.021C283.093 357.818 286.544 358.434 289.713 359.817C292.882 361.201 295.679 363.313 297.875 365.982C300.071 368.651 301.605 371.801 302.351 375.174C300.914 372.654 298.992 370.443 296.694 368.67C294.396 366.897 291.769 365.597 288.964 364.846C286.16 364.095 283.235 363.907 280.357 364.294C277.48 364.68 274.708 365.634 272.202 367.099L272.065 367.179L272.136 367.321C272.657 368.402 273.346 369.394 274.176 370.261C273.035 369.645 271.978 368.882 271.034 367.993L270.934 367.899L270.821 367.977C269.342 368.999 267.994 370.198 266.807 371.547L266.679 371.694C265.772 372.73 264.657 373.563 263.407 374.14C262.156 374.716 260.798 375.023 259.421 375.04C255.821 375.101 252.353 376.407 249.608 378.737C246.864 381.067 245.014 384.276 244.373 387.816C243.612 387.68 242.86 387.497 242.121 387.269L242.021 387.239L242.003 387.136C241.599 384.845 241.717 382.492 242.348 380.253C242.979 378.014 244.107 375.946 245.648 374.202Z" fill="black"/>
<path d="M228.209 274.208C237.378 265.325 242.623 252.481 242.623 238.93C242.623 238.841 242.623 238.751 242.622 238.662L242.622 238.41C242.618 229.551 244.97 220.85 249.436 213.197L249.787 212.595L250.288 213.08C254.163 216.83 258.634 219.912 263.519 222.201C259.713 218.768 256.524 214.072 253.597 207.626L253.457 207.321L253.668 207.06C258.2 201.424 263.9 196.837 270.376 193.612C276.851 190.388 283.949 188.603 291.181 188.382C298.413 188.16 305.607 189.506 312.269 192.327C318.93 195.148 324.901 199.377 329.771 204.724C332.74 208.015 336.37 210.643 340.425 212.437C344.479 214.232 348.866 215.152 353.301 215.139L353.927 215.136C359.718 215.136 365.487 215.843 371.105 217.242L371.534 217.349L371.518 217.789C371.374 221.962 371.775 226.135 372.712 230.204C373.044 226.354 373.981 222.58 375.489 219.022L375.681 218.548L376.166 218.709C392.103 223.993 405.637 234.772 414.344 249.116C423.052 263.46 426.364 280.432 423.689 296.994C421.013 313.556 412.524 328.625 399.742 339.504C386.959 350.382 370.719 356.36 353.927 356.366C349.954 356.366 345.988 356.035 342.069 355.377C319.217 351.526 297.265 352.52 276.822 358.331C272.322 359.606 267.666 360.251 262.988 360.247C262.192 360.247 261.368 360.227 260.538 360.187L259.577 360.14L260.11 359.339C261.678 356.939 263.541 354.745 265.656 352.809C261.893 354.561 258.373 356.793 255.184 359.45L254.993 359.609L254.745 359.569C245.592 358.048 237.042 354.015 230.05 347.922C223.057 341.828 217.897 333.913 215.144 325.06C212.392 316.207 212.156 306.764 214.463 297.784C216.77 288.805 221.529 280.643 228.209 274.208Z" fill="#E6E6E6"/>
<g opacity="0.15">
<path d="M274.138 191.911C275.865 194.775 277.99 197.38 280.45 199.647C276.928 197.995 273.617 195.928 270.588 193.489C271.75 192.917 272.933 192.391 274.138 191.911Z" fill="black"/>
<path d="M245.14 251.655C242.415 254.296 239.998 257.237 237.936 260.422C241.04 253.683 242.639 246.349 242.623 238.93C242.623 238.841 242.623 238.751 242.622 238.662L242.622 238.41C242.618 229.551 244.97 220.85 249.436 213.197L249.787 212.595L250.288 213.08C253.05 215.747 256.117 218.081 259.425 220.031C258.572 232.217 253.48 243.575 245.14 251.655Z" fill="black"/>
<path d="M259.552 215.856L259.553 216.108C259.554 216.197 259.554 216.287 259.554 216.376C259.554 216.868 259.545 217.358 259.531 217.847C257.172 214.676 255.181 211.247 253.597 207.627L253.458 207.321L253.669 207.06C256.311 203.774 259.356 200.832 262.731 198.302C260.63 203.917 259.553 209.862 259.552 215.856Z" fill="black"/>
<path d="M228.209 274.209C230.619 271.866 232.76 269.263 234.594 266.447C231.31 273.436 229.691 281.09 229.864 288.808C230.036 296.526 231.995 304.1 235.587 310.936C239.179 317.771 244.306 323.683 250.567 328.208C256.829 332.732 264.054 335.747 271.676 337.015L271.923 337.056L272.115 336.896C275.303 334.239 278.823 332.007 282.587 330.255C280.472 332.191 278.609 334.385 277.041 336.785L276.507 337.587L277.469 337.633C278.299 337.673 279.123 337.693 279.919 337.693C284.597 337.697 289.253 337.052 293.753 335.777C314.196 329.966 336.148 328.972 359 332.823C362.918 333.481 366.885 333.812 370.858 333.812C388.178 333.825 404.894 327.456 417.807 315.924C412.079 328.012 403.036 338.229 391.729 345.387C380.422 352.546 367.314 356.353 353.927 356.366C349.954 356.366 345.988 356.035 342.069 355.377C319.217 351.526 297.265 352.52 276.822 358.331C272.322 359.606 267.666 360.251 262.988 360.247C262.192 360.247 261.368 360.227 260.538 360.187L259.577 360.14L260.11 359.339C261.678 356.939 263.541 354.745 265.656 352.809C261.893 354.561 258.373 356.793 255.184 359.45L254.993 359.609L254.745 359.569C245.592 358.048 237.042 354.015 230.05 347.922C223.057 341.828 217.897 333.913 215.144 325.06C212.392 316.207 212.156 306.764 214.463 297.785C216.77 288.805 221.529 280.643 228.209 274.209Z" fill="black"/>
</g>
<path d="M35.6323 413.274C27.536 413.274 19.7023 410.404 13.5241 405.177C7.3458 399.949 3.22336 392.701 1.88967 384.723L1.8621 384.554L1.97105 384.423C3.78674 382.248 5.31236 379.847 6.50973 377.28C5.18625 378.723 3.68684 379.994 2.04665 381.063L1.49922 381.427L1.46765 380.771C1.44007 380.205 1.42628 379.643 1.42628 379.1C1.42352 375.909 1.86429 372.733 2.73595 369.663C6.70718 355.717 7.38625 340.742 4.75447 325.153C4.30478 322.48 4.07882 319.774 4.07896 317.064C4.083 305.61 8.168 294.531 15.6025 285.811C23.037 277.091 33.3354 271.3 44.6538 269.475C55.9721 267.65 67.5712 269.909 77.374 275.849C87.1768 281.789 94.5432 291.022 98.1541 301.893L98.2639 302.225L97.9402 302.355C95.5083 303.384 92.9294 304.023 90.2984 304.25C93.0789 304.889 95.931 305.163 98.7825 305.064L99.0835 305.054L99.1569 305.346C100.113 309.179 100.596 313.114 100.596 317.064L100.594 317.492C100.585 320.517 101.214 323.509 102.44 326.275C103.667 329.041 105.463 331.517 107.711 333.543C111.365 336.865 114.256 340.938 116.184 345.482C118.112 350.026 119.032 354.934 118.88 359.867C118.728 364.801 117.509 369.643 115.305 374.06C113.102 378.478 109.966 382.366 106.115 385.457L105.937 385.601L105.728 385.506C101.323 383.51 98.1141 381.334 95.7674 378.738C97.3319 382.07 99.4382 385.12 102.001 387.764L102.332 388.105L101.921 388.344C96.6908 391.391 90.7447 392.996 84.6906 392.993L84.5181 392.993C84.4572 392.992 84.3958 392.992 84.3348 392.992C79.8634 392.945 75.4276 393.791 71.2875 395.479C67.1475 397.168 63.3866 399.665 60.2255 402.825C57.029 406.115 53.2071 408.734 48.9839 410.528C44.7607 412.323 40.2214 413.256 35.6323 413.274Z" fill="#E4E4E4"/>
<path d="M23.5271 467.121C23.3786 467.121 23.2351 467.067 23.123 466.97C23.0108 466.873 22.9376 466.738 22.9167 466.591C22.8904 466.407 20.3214 447.896 22.6287 423.293C24.7595 400.572 31.6023 367.846 52.1009 340.968C52.15 340.903 52.2113 340.849 52.2814 340.808C52.3515 340.768 52.429 340.741 52.5094 340.73C52.5898 340.719 52.6715 340.724 52.7499 340.745C52.8284 340.766 52.902 340.802 52.9665 340.851C53.031 340.9 53.0852 340.961 53.126 341.031C53.1668 341.101 53.1934 341.179 53.2042 341.259C53.215 341.339 53.2099 341.421 53.1891 341.499C53.1683 341.578 53.1322 341.651 53.083 341.716C32.7615 368.361 25.9738 400.847 23.858 423.408C21.5641 447.868 24.113 466.235 24.1391 466.417C24.1514 466.505 24.1449 466.594 24.1198 466.679C24.0947 466.764 24.0517 466.842 23.9937 466.909C23.9357 466.975 23.864 467.029 23.7835 467.066C23.703 467.102 23.6155 467.121 23.5271 467.121Z" fill="#3F3D56"/>
<path d="M33.7743 376.508C33.6439 376.508 33.5168 376.467 33.4113 376.39C33.3057 376.313 33.2272 376.206 33.1868 376.082C33.1464 375.958 33.1464 375.824 33.1867 375.7C33.2269 375.576 33.3054 375.468 33.4109 375.392C39.2518 371.442 45.5615 368.233 52.195 365.838C62.5586 362.048 78.3179 358.611 94.5419 363.77C94.6194 363.794 94.6913 363.834 94.7535 363.886C94.8157 363.938 94.867 364.002 94.9044 364.074C94.9418 364.146 94.9647 364.225 94.9716 364.306C94.9785 364.386 94.9694 364.468 94.9448 364.545C94.9201 364.623 94.8805 364.694 94.8281 364.756C94.7756 364.818 94.7115 364.869 94.6393 364.906C94.5671 364.944 94.4882 364.966 94.4073 364.973C94.3263 364.979 94.2448 364.97 94.1675 364.945C78.2759 359.892 62.8023 363.272 52.6196 366.997C46.0927 369.35 39.8841 372.505 34.1367 376.39C34.0315 376.466 33.9046 376.508 33.7743 376.508Z" fill="#3F3D56"/>
<path d="M99.9461 350.912C100.659 350.718 101.321 350.37 101.884 349.893C102.448 349.416 102.9 348.821 103.209 348.15C103.518 347.479 103.676 346.749 103.671 346.011C103.667 345.273 103.501 344.544 103.184 343.877L114.077 308.398L106.065 306.811L96.1029 341.589C95.0164 342.194 94.19 343.177 93.7802 344.35C93.3704 345.524 93.4057 346.807 93.8794 347.956C94.3532 349.105 95.2324 350.041 96.3505 350.586C97.4686 351.131 98.748 351.247 99.9461 350.912Z" fill="#FFB6B6"/>
<path d="M114.711 298.032C113.555 297.574 112.283 297.497 111.079 297.812V297.819C110.674 297.916 110.281 298.062 109.91 298.252C109.504 298.452 109.123 298.701 108.778 298.994C108.031 299.614 107.455 300.412 107.102 301.316L101.793 310.556C101.641 310.819 101.547 311.111 101.519 311.413C101.491 311.715 101.53 312.019 101.632 312.305C101.731 312.592 101.892 312.854 102.103 313.074C102.313 313.293 102.569 313.464 102.852 313.576L103.999 314.024L109.447 316.161L111.454 316.955L112.807 317.483C113.09 317.595 113.393 317.644 113.697 317.628C114 317.611 114.296 317.529 114.565 317.387C114.834 317.246 115.069 317.048 115.254 316.807C115.439 316.566 115.57 316.288 115.638 315.992L118.035 305.642C118.602 304.193 118.57 302.577 117.947 301.151C117.324 299.724 116.161 298.603 114.711 298.032Z" fill="#3F3D56"/>
<path d="M130.498 457.683H136.044L138.684 436.31H130.498V457.683Z" fill="#FFB6B6"/>
<path d="M127.571 467.284H131.548L132.258 463.532L134.076 467.284H144.625C145.131 467.284 145.623 467.122 146.031 466.823C146.438 466.523 146.739 466.102 146.889 465.62C147.04 465.137 147.032 464.619 146.867 464.142C146.702 463.664 146.389 463.252 145.973 462.965L137.549 457.152V453.359L128.688 453.888L127.571 467.284Z" fill="#2F2E41"/>
<path d="M76.5598 446.689L81.33 449.515L94.5127 432.477L87.4721 428.305L76.5598 446.689Z" fill="#FFB6B6"/>
<path d="M69.1404 453.455L72.5613 455.482L75.0874 452.617L74.7359 456.77L83.8092 462.146C84.2441 462.404 84.7501 462.516 85.2533 462.466C85.7565 462.416 86.2305 462.207 86.6062 461.869C86.9818 461.531 87.2395 461.081 87.3415 460.587C87.4435 460.092 87.3845 459.577 87.1731 459.118L82.8952 449.826L84.8316 446.563L76.9407 442.502L69.1404 453.455Z" fill="#2F2E41"/>
<path d="M132.973 321.026L135.669 338.192L110.064 338.529L113.434 322.036L132.973 321.026Z" fill="#FFB6B6"/>
<path d="M135.767 337.975L143.08 355.695L143.613 403.082L137.372 448.326H130.466L127.637 403.819L120.677 373.366L113.813 405.217L92.4698 436.393H81.9822L101.264 402.038L103.495 364.614C103.495 364.614 102.104 348.738 109.222 339.37L110.955 334.369L135.767 337.975Z" fill="#2F2E41"/>
<path d="M137.483 319.127C137.466 318.798 137.441 318.453 137.407 318.125C136.767 310.229 134.457 303.123 130.982 298.36C127.507 293.597 123.15 291.566 118.864 292.712C114.84 293.824 111.173 297.604 108.553 303.344V303.359C108.417 303.657 108.289 303.97 108.162 304.283C107.932 304.815 107.72 305.379 107.516 305.943C105.675 311.071 104.727 317.112 104.798 323.26V323.276C104.825 325.645 105.004 328 105.333 330.291C105.899 334.298 106.344 338.359 106.667 342.457C106.888 345.056 107.058 347.608 107.185 350.098C107.261 351.351 107.321 352.588 107.372 353.793V353.809C107.627 359.775 107.712 365.13 107.788 369.279C107.822 371.534 107.856 373.413 107.915 374.853C107.917 374.948 107.923 375.042 107.932 375.135C107.998 376.103 108.223 377.011 108.578 377.734C108.622 377.836 108.67 377.93 108.722 378.016C109.099 378.641 109.555 379.082 110.047 379.3C110.218 379.363 110.392 379.395 110.566 379.394H110.617L115.569 375.135L119.476 371.784L132.735 360.385C133.278 360.365 133.805 360.039 134.246 359.451C134.686 358.864 135.018 358.042 135.198 357.097V357.082C135.215 356.956 135.241 356.831 135.258 356.69C135.971 351.507 137.237 345.949 137.687 337.008C137.746 335.724 137.797 334.393 137.823 332.968V332.953C137.897 328.335 137.784 323.713 137.483 319.127Z" fill="#3F3D56"/>
<path d="M120.182 290.501C126.161 290.501 131.008 285.659 131.008 279.685C131.008 273.712 126.161 268.869 120.182 268.869C114.203 268.869 109.356 273.712 109.356 279.685C109.356 285.659 114.203 290.501 120.182 290.501Z" fill="#FFB6B6"/>
<path d="M108.624 296.497C106.343 296.5 104.157 297.406 102.544 299.017C100.932 300.628 100.025 302.813 100.022 305.091V322.905C100.021 324.907 100.721 326.847 102 328.388C103.28 329.929 105.059 330.975 107.028 331.345H107.036C107.56 331.442 108.091 331.491 108.624 331.492H120.535V296.497H108.624Z" fill="#EC1015"/>
<path d="M108.778 298.252V311.247C108.778 311.644 108.936 312.026 109.217 312.307C109.499 312.588 109.88 312.745 110.278 312.745C110.676 312.745 111.057 312.588 111.339 312.307C111.62 312.026 111.778 311.644 111.778 311.247V298.252H108.778Z" fill="#3F3D56"/>
<path d="M115.388 319.746H106.668C106.419 319.746 106.173 319.795 105.943 319.891C105.714 319.986 105.505 320.126 105.33 320.302C105.154 320.478 105.015 320.687 104.921 320.917C104.826 321.146 104.778 321.393 104.779 321.641V326.849C104.778 327.351 104.977 327.832 105.331 328.187C105.685 328.542 106.166 328.743 106.668 328.744H115.388C115.891 328.743 116.372 328.543 116.728 328.188C117.083 327.833 117.284 327.351 117.285 326.849V321.641C117.285 321.392 117.236 321.146 117.141 320.916C117.045 320.686 116.905 320.477 116.729 320.301C116.553 320.125 116.344 319.985 116.114 319.89C115.884 319.795 115.637 319.746 115.388 319.746Z" fill="#3F3D56"/>
<path d="M131.496 318.098C133.874 315.083 135.13 311.335 135.047 307.497C135.047 299.779 130.446 293.5 124.79 293.5C121.754 293.5 118.893 295.313 116.942 298.475L117.794 298.999C119.559 296.14 122.109 294.5 124.79 294.5C129.894 294.5 134.046 300.331 134.046 307.497C134.13 311.099 132.958 314.618 130.733 317.452L131.496 318.098Z" fill="#FF5A5E"/>
<path d="M155.088 344.232C155.415 343.57 155.593 342.845 155.609 342.107C155.625 341.369 155.48 340.636 155.182 339.96C154.884 339.285 154.442 338.683 153.886 338.196C153.33 337.71 152.674 337.351 151.964 337.146L132.605 305.474L126.103 310.413L145.554 340.924C145.287 342.138 145.475 343.408 146.083 344.492C146.69 345.577 147.675 346.401 148.85 346.809C150.025 347.217 151.309 347.18 152.459 346.705C153.608 346.23 154.544 345.35 155.088 344.232Z" fill="#FFB6B6"/>
<path d="M139.327 309.337L136.055 304.746L134.305 302.293L133.166 300.691C132.808 299.986 132.31 299.361 131.703 298.855C130.666 297.988 129.361 297.504 128.009 297.486C126.657 297.467 125.34 297.915 124.28 298.753C123.219 299.592 122.481 300.77 122.188 302.089C121.896 303.408 122.067 304.787 122.674 305.995L126.071 316.095C126.169 316.383 126.328 316.646 126.536 316.867C126.745 317.087 126.999 317.261 127.281 317.375C127.562 317.489 127.865 317.542 128.169 317.529C128.473 317.516 128.77 317.438 129.041 317.3L130.137 316.742L131.864 315.86L133.416 315.074H133.423L136.298 313.605L137.276 313.113L138.57 312.452C138.84 312.312 139.077 312.116 139.265 311.877C139.453 311.639 139.587 311.362 139.659 311.067C139.731 310.772 139.738 310.464 139.681 310.166C139.624 309.868 139.503 309.585 139.327 309.337Z" fill="#3F3D56"/>
<path d="M345.296 411.388C342.454 406.13 342.057 399.239 345.547 394.386C347.273 400.652 351.161 406.105 356.525 409.782C358.598 411.192 361.051 412.546 361.761 414.949C362.134 416.482 361.904 418.099 361.118 419.467C360.334 420.817 359.38 422.062 358.279 423.17L358.179 423.546C353.033 420.5 348.138 416.646 345.296 411.388Z" fill="#E6E6E6"/>
<path d="M171.046 278.432C168.204 273.174 167.807 266.283 171.297 261.43C173.023 267.695 176.911 273.149 182.274 276.825C184.348 278.236 186.801 279.589 187.511 281.993C187.884 283.525 187.654 285.142 186.868 286.51C186.084 287.861 185.13 289.105 184.029 290.214L183.929 290.59C178.783 287.543 173.888 283.69 171.046 278.432Z" fill="#E6E6E6"/>
<path d="M113.579 270.86V270.868C113.58 271.338 113.52 271.807 113.401 272.262C113.382 272.342 113.359 272.426 113.332 272.505V272.509C113.077 273.322 112.637 274.065 112.046 274.679C111.456 275.293 110.731 275.763 109.928 276.05C109.811 276.096 109.689 276.134 109.567 276.168C109.311 276.242 109.049 276.296 108.784 276.328C108.546 276.361 108.305 276.378 108.065 276.377C107.877 276.378 107.689 276.369 107.502 276.351C107.065 276.306 106.634 276.208 106.221 276.058C106.156 276.039 106.092 276.016 106.03 275.99C105.999 275.979 105.969 275.966 105.939 275.952C105.249 275.663 104.625 275.237 104.105 274.701C103.585 274.164 103.179 273.527 102.913 272.829C102.646 272.131 102.525 271.385 102.555 270.639C102.586 269.892 102.768 269.16 103.091 268.486L103.095 268.482C103.365 267.916 103.732 267.402 104.178 266.962C105.21 265.934 106.608 265.357 108.065 265.359C108.137 265.357 108.21 265.36 108.282 265.366C109.121 265.401 109.941 265.626 110.68 266.024C111.42 266.422 112.059 266.983 112.549 267.665C112.973 268.253 113.275 268.919 113.439 269.625C113.532 270.03 113.579 270.445 113.579 270.86Z" fill="#2F2E41"/>
<path d="M107.216 267.519C106.731 265.694 105.683 264.067 104.221 262.87C102.759 261.672 100.957 260.965 99.0706 260.848C97.1839 260.731 95.3082 261.211 93.7095 262.219C92.1107 263.226 90.87 264.711 90.1633 266.463C88.9788 269.399 89.4129 272.73 88.7034 275.815C87.9881 278.616 86.3731 281.105 84.1059 282.901C81.8388 284.697 79.0447 285.701 76.1519 285.759L86.8843 290.08C88.0303 290.665 89.3151 290.925 90.5989 290.831C92.4663 290.515 93.7657 288.733 94.2918 286.915C94.8179 285.097 94.7752 283.167 95.1082 281.304C95.5404 279.015 96.5246 276.866 97.9756 275.043C99.4266 273.22 101.301 271.779 103.435 270.842C104.644 270.327 105.986 269.938 106.841 268.94C107.695 267.943 107.648 266.061 106.409 265.622" fill="#2F2E41"/>
<path d="M124.608 267.562C123.152 264.384 119.311 265.031 115.838 265.45C114.103 265.717 112.46 266.403 111.051 267.448C109.642 268.493 108.509 269.865 107.75 271.446C106.266 274.65 105.982 278.28 106.95 281.676C107.47 283.988 108.71 286.077 110.492 287.641C112.326 289.115 120.949 292.601 121.667 289.599C120.77 293.515 122.575 292.902 125.247 295.903C126.631 291.749 127.28 283.922 128.664 279.768L129.289 277.893C129.728 276.575 130.168 275.254 130.485 273.902C130.884 272.203 131.037 270.255 129.981 268.865C128.925 267.475 126.264 267.421 125.73 269.083" fill="#2F2E41"/>
<path d="M122.865 280.789L122.402 277.846C122.717 274.186 122.203 268.363 124.608 267.562L126.078 269.031C125.148 269.341 123.379 274.815 122.865 280.789Z" fill="#FF6584"/>
</svg>
